%TF.GenerationSoftware,KiCad,Pcbnew,10.0.3*%
%TF.CreationDate,2026-05-31T15:12:45-05:00*%
%TF.ProjectId,chameleon_mesh_node_v1,6368616d-656c-4656-9f6e-5f6d6573685f,v1.0*%
%TF.SameCoordinates,Original*%
%TF.FileFunction,OtherDrawing,Comment*%
%FSLAX46Y46*%
G04 Gerber Fmt 4.6, Leading zero omitted, Abs format (unit mm)*
G04 Created by KiCad (PCBNEW 10.0.3) date 2026-05-31 15:12:45*
%MOMM*%
%LPD*%
G01*
G04 APERTURE LIST*
%ADD10C,0.100000*%
%ADD11C,0.254000*%
G04 APERTURE END LIST*
D10*
X21260714Y-13326109D02*
X21260714Y-12826109D01*
X21260714Y-12826109D02*
X21451190Y-12826109D01*
X21451190Y-12826109D02*
X21498809Y-12849919D01*
X21498809Y-12849919D02*
X21522619Y-12873728D01*
X21522619Y-12873728D02*
X21546428Y-12921347D01*
X21546428Y-12921347D02*
X21546428Y-12992776D01*
X21546428Y-12992776D02*
X21522619Y-13040395D01*
X21522619Y-13040395D02*
X21498809Y-13064204D01*
X21498809Y-13064204D02*
X21451190Y-13088014D01*
X21451190Y-13088014D02*
X21260714Y-13088014D01*
X22046428Y-13278490D02*
X22022619Y-13302300D01*
X22022619Y-13302300D02*
X21951190Y-13326109D01*
X21951190Y-13326109D02*
X21903571Y-13326109D01*
X21903571Y-13326109D02*
X21832143Y-13302300D01*
X21832143Y-13302300D02*
X21784524Y-13254680D01*
X21784524Y-13254680D02*
X21760714Y-13207061D01*
X21760714Y-13207061D02*
X21736905Y-13111823D01*
X21736905Y-13111823D02*
X21736905Y-13040395D01*
X21736905Y-13040395D02*
X21760714Y-12945157D01*
X21760714Y-12945157D02*
X21784524Y-12897538D01*
X21784524Y-12897538D02*
X21832143Y-12849919D01*
X21832143Y-12849919D02*
X21903571Y-12826109D01*
X21903571Y-12826109D02*
X21951190Y-12826109D01*
X21951190Y-12826109D02*
X22022619Y-12849919D01*
X22022619Y-12849919D02*
X22046428Y-12873728D01*
X22427381Y-13064204D02*
X22498809Y-13088014D01*
X22498809Y-13088014D02*
X22522619Y-13111823D01*
X22522619Y-13111823D02*
X22546428Y-13159442D01*
X22546428Y-13159442D02*
X22546428Y-13230871D01*
X22546428Y-13230871D02*
X22522619Y-13278490D01*
X22522619Y-13278490D02*
X22498809Y-13302300D01*
X22498809Y-13302300D02*
X22451190Y-13326109D01*
X22451190Y-13326109D02*
X22260714Y-13326109D01*
X22260714Y-13326109D02*
X22260714Y-12826109D01*
X22260714Y-12826109D02*
X22427381Y-12826109D01*
X22427381Y-12826109D02*
X22475000Y-12849919D01*
X22475000Y-12849919D02*
X22498809Y-12873728D01*
X22498809Y-12873728D02*
X22522619Y-12921347D01*
X22522619Y-12921347D02*
X22522619Y-12968966D01*
X22522619Y-12968966D02*
X22498809Y-13016585D01*
X22498809Y-13016585D02*
X22475000Y-13040395D01*
X22475000Y-13040395D02*
X22427381Y-13064204D01*
X22427381Y-13064204D02*
X22260714Y-13064204D01*
X23141666Y-13064204D02*
X23308333Y-13064204D01*
X23379761Y-13326109D02*
X23141666Y-13326109D01*
X23141666Y-13326109D02*
X23141666Y-12826109D01*
X23141666Y-12826109D02*
X23379761Y-12826109D01*
X23808333Y-13326109D02*
X23808333Y-12826109D01*
X23808333Y-13302300D02*
X23760714Y-13326109D01*
X23760714Y-13326109D02*
X23665476Y-13326109D01*
X23665476Y-13326109D02*
X23617857Y-13302300D01*
X23617857Y-13302300D02*
X23594047Y-13278490D01*
X23594047Y-13278490D02*
X23570238Y-13230871D01*
X23570238Y-13230871D02*
X23570238Y-13088014D01*
X23570238Y-13088014D02*
X23594047Y-13040395D01*
X23594047Y-13040395D02*
X23617857Y-13016585D01*
X23617857Y-13016585D02*
X23665476Y-12992776D01*
X23665476Y-12992776D02*
X23760714Y-12992776D01*
X23760714Y-12992776D02*
X23808333Y-13016585D01*
X24260714Y-12992776D02*
X24260714Y-13397538D01*
X24260714Y-13397538D02*
X24236904Y-13445157D01*
X24236904Y-13445157D02*
X24213095Y-13468966D01*
X24213095Y-13468966D02*
X24165476Y-13492776D01*
X24165476Y-13492776D02*
X24094047Y-13492776D01*
X24094047Y-13492776D02*
X24046428Y-13468966D01*
X24260714Y-13302300D02*
X24213095Y-13326109D01*
X24213095Y-13326109D02*
X24117857Y-13326109D01*
X24117857Y-13326109D02*
X24070238Y-13302300D01*
X24070238Y-13302300D02*
X24046428Y-13278490D01*
X24046428Y-13278490D02*
X24022619Y-13230871D01*
X24022619Y-13230871D02*
X24022619Y-13088014D01*
X24022619Y-13088014D02*
X24046428Y-13040395D01*
X24046428Y-13040395D02*
X24070238Y-13016585D01*
X24070238Y-13016585D02*
X24117857Y-12992776D01*
X24117857Y-12992776D02*
X24213095Y-12992776D01*
X24213095Y-12992776D02*
X24260714Y-13016585D01*
X24689285Y-13302300D02*
X24641666Y-13326109D01*
X24641666Y-13326109D02*
X24546428Y-13326109D01*
X24546428Y-13326109D02*
X24498809Y-13302300D01*
X24498809Y-13302300D02*
X24475000Y-13254680D01*
X24475000Y-13254680D02*
X24475000Y-13064204D01*
X24475000Y-13064204D02*
X24498809Y-13016585D01*
X24498809Y-13016585D02*
X24546428Y-12992776D01*
X24546428Y-12992776D02*
X24641666Y-12992776D01*
X24641666Y-12992776D02*
X24689285Y-13016585D01*
X24689285Y-13016585D02*
X24713095Y-13064204D01*
X24713095Y-13064204D02*
X24713095Y-13111823D01*
X24713095Y-13111823D02*
X24475000Y-13159442D01*
%TO.C,U3*%
D11*
X38777000Y-11650000D02*
G75*
G02*
X38523000Y-11650000I-127000J0D01*
G01*
X38523000Y-11650000D02*
G75*
G02*
X38777000Y-11650000I127000J0D01*
G01*
%TD*%
M02*
