M48
; DRILL file KiCad 10.0.3 date 2026-06-13T23:35:42
; FORMAT={-:-/ absolute / metric / decimal}
; #@! TF.CreationDate,2026-06-13T23:35:42-05:00
; #@! TF.GenerationSoftware,Kicad,Pcbnew,10.0.3
; #@! TF.FileFunction,MixedPlating,1,2
FMAT,2
METRIC
; #@! TA.AperFunction,Plated,PTH,ViaDrill
T1C0.300
; #@! TA.AperFunction,Plated,PTH,ComponentDrill
T2C0.400
; #@! TA.AperFunction,Plated,PTH,ComponentDrill
T3C0.600
; #@! TA.AperFunction,NonPlated,NPTH,ComponentDrill
T4C2.700
%
G90
G05
T1
X19.84Y-29.84
X19.84Y-32.38
X19.84Y-34.92
X32.867Y-15.692
X36.0Y-19.68
X36.0Y-34.92
X38.5Y-30.3
X43.787Y-32.387
X47.201Y-29.406
X48.511Y-27.85
X50.185Y-32.553
X50.811Y-33.218
X52.934Y-32.398
X53.95Y-30.32
T2
X20.0Y-7.0
X20.0Y-8.35
X20.85Y-7.0
X20.85Y-8.35
X21.7Y-7.0
X21.7Y-8.35
X22.55Y-7.0
X22.55Y-8.35
X23.4Y-7.0
X23.4Y-8.35
X24.25Y-7.0
X24.25Y-8.35
X25.1Y-7.0
X25.1Y-8.35
X25.95Y-7.0
X25.95Y-8.35
T4
X3.0Y-9.0
X3.0Y-37.0
X57.0Y-9.0
X57.0Y-37.0
T3
X18.65Y-7.23G85X18.65Y-8.73
G05
X18.65Y-10.96G85X18.65Y-11.76
G05
X27.3Y-7.23G85X27.3Y-8.73
G05
X27.3Y-10.96G85X27.3Y-11.76
G05
M30
