%TF.GenerationSoftware,KiCad,Pcbnew,10.0.3*%
%TF.CreationDate,2026-05-31T15:12:45-05:00*%
%TF.ProjectId,chameleon_mesh_node_v1,6368616d-656c-4656-9f6e-5f6d6573685f,v1.0*%
%TF.SameCoordinates,Original*%
%TF.FileFunction,Legend,Top*%
%TF.FilePolarity,Positive*%
%FSLAX46Y46*%
G04 Gerber Fmt 4.6, Leading zero omitted, Abs format (unit mm)*
G04 Created by KiCad (PCBNEW 10.0.3) date 2026-05-31 15:12:45*
%MOMM*%
%LPD*%
G01*
G04 APERTURE LIST*
%ADD10C,0.150000*%
%ADD11C,0.106680*%
%ADD12C,0.127000*%
%ADD13C,0.100000*%
%ADD14C,0.504000*%
%ADD15C,0.120000*%
G04 APERTURE END LIST*
D10*
X48509846Y-10663533D02*
X48509846Y-11230200D01*
X48509846Y-11230200D02*
X48543180Y-11296866D01*
X48543180Y-11296866D02*
X48576513Y-11330200D01*
X48576513Y-11330200D02*
X48643180Y-11363533D01*
X48643180Y-11363533D02*
X48776513Y-11363533D01*
X48776513Y-11363533D02*
X48843180Y-11330200D01*
X48843180Y-11330200D02*
X48876513Y-11296866D01*
X48876513Y-11296866D02*
X48909846Y-11230200D01*
X48909846Y-11230200D02*
X48909846Y-10663533D01*
X49176513Y-10663533D02*
X49609846Y-10663533D01*
X49609846Y-10663533D02*
X49376513Y-10930200D01*
X49376513Y-10930200D02*
X49476513Y-10930200D01*
X49476513Y-10930200D02*
X49543179Y-10963533D01*
X49543179Y-10963533D02*
X49576513Y-10996866D01*
X49576513Y-10996866D02*
X49609846Y-11063533D01*
X49609846Y-11063533D02*
X49609846Y-11230200D01*
X49609846Y-11230200D02*
X49576513Y-11296866D01*
X49576513Y-11296866D02*
X49543179Y-11330200D01*
X49543179Y-11330200D02*
X49476513Y-11363533D01*
X49476513Y-11363533D02*
X49276513Y-11363533D01*
X49276513Y-11363533D02*
X49209846Y-11330200D01*
X49209846Y-11330200D02*
X49176513Y-11296866D01*
X2538095Y-33654819D02*
X2538095Y-32654819D01*
X2538095Y-33131009D02*
X3109523Y-33131009D01*
X3109523Y-33654819D02*
X3109523Y-32654819D01*
X3490476Y-32654819D02*
X4109523Y-32654819D01*
X4109523Y-32654819D02*
X3776190Y-33035771D01*
X3776190Y-33035771D02*
X3919047Y-33035771D01*
X3919047Y-33035771D02*
X4014285Y-33083390D01*
X4014285Y-33083390D02*
X4061904Y-33131009D01*
X4061904Y-33131009D02*
X4109523Y-33226247D01*
X4109523Y-33226247D02*
X4109523Y-33464342D01*
X4109523Y-33464342D02*
X4061904Y-33559580D01*
X4061904Y-33559580D02*
X4014285Y-33607200D01*
X4014285Y-33607200D02*
X3919047Y-33654819D01*
X3919047Y-33654819D02*
X3633333Y-33654819D01*
X3633333Y-33654819D02*
X3538095Y-33607200D01*
X3538095Y-33607200D02*
X3490476Y-33559580D01*
D11*
X26568450Y-15380391D02*
X26568450Y-16013698D01*
X26568450Y-16013698D02*
X26605704Y-16088204D01*
X26605704Y-16088204D02*
X26642957Y-16125458D01*
X26642957Y-16125458D02*
X26717464Y-16162711D01*
X26717464Y-16162711D02*
X26866477Y-16162711D01*
X26866477Y-16162711D02*
X26940984Y-16125458D01*
X26940984Y-16125458D02*
X26978237Y-16088204D01*
X26978237Y-16088204D02*
X27015490Y-16013698D01*
X27015490Y-16013698D02*
X27015490Y-15380391D01*
X27350770Y-15454898D02*
X27388023Y-15417644D01*
X27388023Y-15417644D02*
X27462530Y-15380391D01*
X27462530Y-15380391D02*
X27648797Y-15380391D01*
X27648797Y-15380391D02*
X27723303Y-15417644D01*
X27723303Y-15417644D02*
X27760557Y-15454898D01*
X27760557Y-15454898D02*
X27797810Y-15529404D01*
X27797810Y-15529404D02*
X27797810Y-15603911D01*
X27797810Y-15603911D02*
X27760557Y-15715671D01*
X27760557Y-15715671D02*
X27313517Y-16162711D01*
X27313517Y-16162711D02*
X27797810Y-16162711D01*
D10*
X55938095Y-254819D02*
X55938095Y745180D01*
X55938095Y268990D02*
X56509523Y268990D01*
X56509523Y-254819D02*
X56509523Y745180D01*
X56938095Y649942D02*
X56985714Y697561D01*
X56985714Y697561D02*
X57080952Y745180D01*
X57080952Y745180D02*
X57319047Y745180D01*
X57319047Y745180D02*
X57414285Y697561D01*
X57414285Y697561D02*
X57461904Y649942D01*
X57461904Y649942D02*
X57509523Y554704D01*
X57509523Y554704D02*
X57509523Y459466D01*
X57509523Y459466D02*
X57461904Y316609D01*
X57461904Y316609D02*
X56890476Y-254819D01*
X56890476Y-254819D02*
X57509523Y-254819D01*
X5116666Y-20454819D02*
X5116666Y-21169104D01*
X5116666Y-21169104D02*
X5069047Y-21311961D01*
X5069047Y-21311961D02*
X4973809Y-21407200D01*
X4973809Y-21407200D02*
X4830952Y-21454819D01*
X4830952Y-21454819D02*
X4735714Y-21454819D01*
X5545238Y-20550057D02*
X5592857Y-20502438D01*
X5592857Y-20502438D02*
X5688095Y-20454819D01*
X5688095Y-20454819D02*
X5926190Y-20454819D01*
X5926190Y-20454819D02*
X6021428Y-20502438D01*
X6021428Y-20502438D02*
X6069047Y-20550057D01*
X6069047Y-20550057D02*
X6116666Y-20645295D01*
X6116666Y-20645295D02*
X6116666Y-20740533D01*
X6116666Y-20740533D02*
X6069047Y-20883390D01*
X6069047Y-20883390D02*
X5497619Y-21454819D01*
X5497619Y-21454819D02*
X6116666Y-21454819D01*
X2538095Y-254819D02*
X2538095Y745180D01*
X2538095Y268990D02*
X3109523Y268990D01*
X3109523Y-254819D02*
X3109523Y745180D01*
X4109523Y-254819D02*
X3538095Y-254819D01*
X3823809Y-254819D02*
X3823809Y745180D01*
X3823809Y745180D02*
X3728571Y602323D01*
X3728571Y602323D02*
X3633333Y507085D01*
X3633333Y507085D02*
X3538095Y459466D01*
X55938095Y-33654819D02*
X55938095Y-32654819D01*
X55938095Y-33131009D02*
X56509523Y-33131009D01*
X56509523Y-33654819D02*
X56509523Y-32654819D01*
X57414285Y-32988152D02*
X57414285Y-33654819D01*
X57176190Y-32607200D02*
X56938095Y-33321485D01*
X56938095Y-33321485D02*
X57557142Y-33321485D01*
X7238095Y-4624819D02*
X7238095Y-5434342D01*
X7238095Y-5434342D02*
X7285714Y-5529580D01*
X7285714Y-5529580D02*
X7333333Y-5577200D01*
X7333333Y-5577200D02*
X7428571Y-5624819D01*
X7428571Y-5624819D02*
X7619047Y-5624819D01*
X7619047Y-5624819D02*
X7714285Y-5577200D01*
X7714285Y-5577200D02*
X7761904Y-5529580D01*
X7761904Y-5529580D02*
X7809523Y-5434342D01*
X7809523Y-5434342D02*
X7809523Y-4624819D01*
X8809523Y-5624819D02*
X8238095Y-5624819D01*
X8523809Y-5624819D02*
X8523809Y-4624819D01*
X8523809Y-4624819D02*
X8428571Y-4767676D01*
X8428571Y-4767676D02*
X8333333Y-4862914D01*
X8333333Y-4862914D02*
X8238095Y-4910533D01*
X22641666Y-4654819D02*
X22641666Y-5369104D01*
X22641666Y-5369104D02*
X22594047Y-5511961D01*
X22594047Y-5511961D02*
X22498809Y-5607200D01*
X22498809Y-5607200D02*
X22355952Y-5654819D01*
X22355952Y-5654819D02*
X22260714Y-5654819D01*
X23641666Y-5654819D02*
X23070238Y-5654819D01*
X23355952Y-5654819D02*
X23355952Y-4654819D01*
X23355952Y-4654819D02*
X23260714Y-4797676D01*
X23260714Y-4797676D02*
X23165476Y-4892914D01*
X23165476Y-4892914D02*
X23070238Y-4940533D01*
X49253095Y-31989819D02*
X49253095Y-32799342D01*
X49253095Y-32799342D02*
X49300714Y-32894580D01*
X49300714Y-32894580D02*
X49348333Y-32942200D01*
X49348333Y-32942200D02*
X49443571Y-32989819D01*
X49443571Y-32989819D02*
X49634047Y-32989819D01*
X49634047Y-32989819D02*
X49729285Y-32942200D01*
X49729285Y-32942200D02*
X49776904Y-32894580D01*
X49776904Y-32894580D02*
X49824523Y-32799342D01*
X49824523Y-32799342D02*
X49824523Y-31989819D01*
X50729285Y-32323152D02*
X50729285Y-32989819D01*
X50491190Y-31942200D02*
X50253095Y-32656485D01*
X50253095Y-32656485D02*
X50872142Y-32656485D01*
%TO.C,U3*%
D12*
X38950000Y-11950000D02*
X38950000Y-13350000D01*
X38950000Y-30650000D02*
X38950000Y-32050000D01*
X38950000Y-32050000D02*
X40350000Y-32050000D01*
X40350000Y-11950000D02*
X38950000Y-11950000D01*
X57650000Y-32050000D02*
X59050000Y-32050000D01*
X59050000Y-11950000D02*
X57650000Y-11950000D01*
X59050000Y-13350000D02*
X59050000Y-11950000D01*
X59050000Y-32050000D02*
X59050000Y-30650000D01*
%TO.C,U2*%
D13*
X19000000Y-35613000D02*
X19000000Y-18468000D01*
X20905000Y-37518000D02*
X34875000Y-37518000D01*
D12*
X23595000Y-16563000D02*
X23598728Y-15552728D01*
X24098728Y-15053000D02*
X32094000Y-15053000D01*
X32594000Y-15553000D02*
X32594000Y-16563000D01*
D13*
X34875000Y-16563000D02*
X20905000Y-16563000D01*
X36780000Y-35613000D02*
X36780000Y-18468000D01*
X19000000Y-18464000D02*
G75*
G02*
X20905000Y-16559000I1905001J-1D01*
G01*
X20905000Y-37518000D02*
G75*
G02*
X19000000Y-35613000I0J1905000D01*
G01*
D12*
X23598728Y-15552728D02*
G75*
G02*
X24098728Y-15052998I500022J-292D01*
G01*
X32094000Y-15053000D02*
G75*
G02*
X32594000Y-15553000I0J-500000D01*
G01*
D13*
X34875000Y-16563000D02*
G75*
G02*
X36780000Y-18468000I0J-1905000D01*
G01*
X36780000Y-35613000D02*
G75*
G02*
X34875000Y-37518000I-1905000J0D01*
G01*
D14*
X19042000Y-16979000D02*
G75*
G02*
X18538000Y-16979000I-252000J0D01*
G01*
X18538000Y-16979000D02*
G75*
G02*
X19042000Y-16979000I252000J0D01*
G01*
X20316000Y-17696000D02*
G75*
G02*
X19812000Y-17696000I-252000J0D01*
G01*
X19812000Y-17696000D02*
G75*
G02*
X20316000Y-17696000I252000J0D01*
G01*
%TO.C,J2*%
D15*
X6540000Y-17940000D02*
X6540000Y-18860000D01*
X6540000Y-18860000D02*
X8140000Y-18860000D01*
X6540000Y-23140000D02*
X6540000Y-24060000D01*
X6540000Y-24060000D02*
X14360000Y-24060000D01*
X8140000Y-17940000D02*
X8140000Y-18860000D01*
X8140000Y-18860000D02*
X8140000Y-19140000D01*
X8140000Y-22860000D02*
X6925000Y-22860000D01*
X8140000Y-22860000D02*
X8140000Y-23140000D01*
X8140000Y-23140000D02*
X6540000Y-23140000D01*
X8140000Y-24060000D02*
X8140000Y-23140000D01*
X10000000Y-20500000D02*
X14360000Y-20500000D01*
X10000000Y-21500000D02*
X10000000Y-20500000D01*
X12100000Y-22300000D02*
X14360000Y-22300000D01*
X12100000Y-22800000D02*
X14360000Y-22800000D01*
X14360000Y-17940000D02*
X6540000Y-17940000D01*
X14360000Y-21500000D02*
X10000000Y-21500000D01*
X14360000Y-24060000D02*
X14360000Y-17940000D01*
X10500000Y-18700000D02*
X12100000Y-18700000D01*
X12100000Y-19700000D01*
X10500000Y-19700000D01*
X10500000Y-18700000D01*
X10500000Y-22300000D02*
X12100000Y-22300000D01*
X12100000Y-23300000D01*
X10500000Y-23300000D01*
X10500000Y-22300000D01*
%TO.C,U1*%
X6390000Y-6390000D02*
X6865000Y-6390000D01*
X6390000Y-6865000D02*
X6390000Y-6390000D01*
X6390000Y-9610000D02*
X6390000Y-9135000D01*
X6865000Y-9610000D02*
X6390000Y-9610000D01*
X9135000Y-6390000D02*
X9610000Y-6390000D01*
X9610000Y-6390000D02*
X9610000Y-6865000D01*
X9610000Y-9135000D02*
X9610000Y-9610000D01*
X9610000Y-9610000D02*
X9135000Y-9610000D01*
X5860000Y-7250000D02*
X5530000Y-7490000D01*
X5530000Y-7010000D01*
X5860000Y-7250000D01*
G36*
X5860000Y-7250000D02*
G01*
X5530000Y-7490000D01*
X5530000Y-7010000D01*
X5860000Y-7250000D01*
G37*
%TO.C,J1*%
X18380000Y-9400000D02*
X18380000Y-10300000D01*
X18380000Y-13000000D02*
X18380000Y-15730000D01*
X18380000Y-15730000D02*
X27570000Y-15730000D01*
X18500000Y-6320000D02*
X27450000Y-6320000D01*
X27570000Y-9400000D02*
X27570000Y-10300000D01*
X27570000Y-13000000D02*
X27570000Y-15730000D01*
%TO.C,U4*%
D13*
X48650000Y-36350000D02*
X48650000Y-36200000D01*
X48650000Y-36360000D02*
X48800000Y-36360000D01*
X51200000Y-33650000D02*
X51350000Y-33650000D01*
X51350000Y-33650000D02*
X51350000Y-33800000D01*
X51350000Y-36350000D02*
X51200000Y-36350000D01*
X51350000Y-36350000D02*
X51350000Y-36200000D01*
D15*
X48650000Y-33650000D02*
X48290000Y-33650000D01*
X48650000Y-33290000D01*
X48650000Y-33650000D01*
G36*
X48650000Y-33650000D02*
G01*
X48290000Y-33650000D01*
X48650000Y-33290000D01*
X48650000Y-33650000D01*
G37*
%TD*%
M02*
