%TF.GenerationSoftware,KiCad,Pcbnew,10.0.3*%
%TF.CreationDate,2026-05-18T06:49:54-05:00*%
%TF.ProjectId,chameleon_mesh_node_v1,6368616d-656c-4656-9f6e-5f6d6573685f,v1.0-DRAFT*%
%TF.SameCoordinates,Original*%
%TF.FileFunction,Paste,Top*%
%TF.FilePolarity,Positive*%
%FSLAX46Y46*%
G04 Gerber Fmt 4.6, Leading zero omitted, Abs format (unit mm)*
G04 Created by KiCad (PCBNEW 10.0.3) date 2026-05-18 06:49:54*
%MOMM*%
%LPD*%
G01*
G04 APERTURE LIST*
G04 Aperture macros list*
%AMRoundRect*
0 Rectangle with rounded corners*
0 $1 Rounding radius*
0 $2 $3 $4 $5 $6 $7 $8 $9 X,Y pos of 4 corners*
0 Add a 4 corners polygon primitive as box body*
4,1,4,$2,$3,$4,$5,$6,$7,$8,$9,$2,$3,0*
0 Add four circle primitives for the rounded corners*
1,1,$1+$1,$2,$3*
1,1,$1+$1,$4,$5*
1,1,$1+$1,$6,$7*
1,1,$1+$1,$8,$9*
0 Add four rect primitives between the rounded corners*
20,1,$1+$1,$2,$3,$4,$5,0*
20,1,$1+$1,$4,$5,$6,$7,0*
20,1,$1+$1,$6,$7,$8,$9,0*
20,1,$1+$1,$8,$9,$2,$3,0*%
G04 Aperture macros list end*
%ADD10R,1.200000X0.500000*%
%ADD11R,0.500000X1.200000*%
%ADD12R,1.100000X1.100000*%
%ADD13R,2.700000X2.300000*%
%ADD14RoundRect,0.500000X-0.875000X-0.500000X0.875000X-0.500000X0.875000X0.500000X-0.875000X0.500000X0*%
%ADD15C,1.700000*%
%ADD16RoundRect,0.275000X-0.275000X0.975000X-0.275000X-0.975000X0.275000X-0.975000X0.275000X0.975000X0*%
%ADD17RoundRect,0.475000X-0.475000X1.075000X-0.475000X-1.075000X0.475000X-1.075000X0.475000X1.075000X0*%
%ADD18RoundRect,0.250000X-0.425000X-0.425000X0.425000X-0.425000X0.425000X0.425000X-0.425000X0.425000X0*%
%ADD19RoundRect,0.062500X-0.356250X-0.062500X0.356250X-0.062500X0.356250X0.062500X-0.356250X0.062500X0*%
%ADD20RoundRect,0.062500X-0.062500X-0.356250X0.062500X-0.356250X0.062500X0.356250X-0.062500X0.356250X0*%
%ADD21R,0.350000X0.500000*%
G04 APERTURE END LIST*
D10*
%TO.C,U3*%
X39750000Y-14350000D03*
X39750000Y-15250000D03*
X39750000Y-16150000D03*
X39750000Y-17050000D03*
X39750000Y-17950000D03*
X39750000Y-18850000D03*
X39750000Y-19750000D03*
X39750000Y-20650000D03*
X39750000Y-21550000D03*
X39750000Y-22450000D03*
X39750000Y-23350000D03*
X39750000Y-24250000D03*
X39750000Y-25150000D03*
X39750000Y-26050000D03*
X39750000Y-26950000D03*
X39750000Y-27850000D03*
X39750000Y-28750000D03*
X39750000Y-29650000D03*
D11*
X41350000Y-31250000D03*
X42250000Y-31250000D03*
X43150000Y-31250000D03*
X44050000Y-31250000D03*
X44950000Y-31250000D03*
X45850000Y-31250000D03*
X46750000Y-31250000D03*
X47650000Y-31250000D03*
X48550000Y-31250000D03*
X49450000Y-31250000D03*
X50350000Y-31250000D03*
X51250000Y-31250000D03*
X52150000Y-31250000D03*
X53050000Y-31250000D03*
X53950000Y-31250000D03*
X54850000Y-31250000D03*
X55750000Y-31250000D03*
X56650000Y-31250000D03*
D10*
X58250000Y-29650000D03*
X58250000Y-28750000D03*
X58250000Y-27850000D03*
X58250000Y-26950000D03*
X58250000Y-26050000D03*
X58250000Y-25150000D03*
X58250000Y-24250000D03*
X58250000Y-23350000D03*
X58250000Y-22450000D03*
X58250000Y-21550000D03*
X58250000Y-20650000D03*
X58250000Y-19750000D03*
X58250000Y-18850000D03*
X58250000Y-17950000D03*
X58250000Y-17050000D03*
X58250000Y-16150000D03*
X58250000Y-15250000D03*
X58250000Y-14350000D03*
D11*
X56650000Y-12750000D03*
X55750000Y-12750000D03*
X54850000Y-12750000D03*
X53950000Y-12750000D03*
X53050000Y-12750000D03*
X52150000Y-12750000D03*
X51250000Y-12750000D03*
X50350000Y-12750000D03*
X49450000Y-12750000D03*
X48550000Y-12750000D03*
X47650000Y-12750000D03*
X46750000Y-12750000D03*
X45850000Y-12750000D03*
X44950000Y-12750000D03*
X44050000Y-12750000D03*
X43150000Y-12750000D03*
X42250000Y-12750000D03*
X41350000Y-12750000D03*
D12*
X39750000Y-12750000D03*
X39750000Y-31250000D03*
X58250000Y-31250000D03*
X58250000Y-12750000D03*
D13*
X44750000Y-15050000D03*
X44750000Y-23950000D03*
X53250000Y-23950000D03*
X53250000Y-15050000D03*
%TD*%
D14*
%TO.C,U2*%
X19835000Y-11880000D03*
X19835000Y-14420000D03*
X19835000Y-16960000D03*
X19835000Y-19500000D03*
X19835000Y-22040000D03*
X19835000Y-24580000D03*
X19835000Y-27120000D03*
X36000000Y-27120000D03*
X36000000Y-24580000D03*
X36000000Y-22040000D03*
X36000000Y-19500000D03*
X36000000Y-16960000D03*
X36000000Y-14420000D03*
X36000000Y-11880000D03*
D15*
X26616600Y-10858500D03*
X29156600Y-10858500D03*
X26616600Y-13398500D03*
X29156600Y-13398500D03*
X26616600Y-15938500D03*
X29156600Y-15938500D03*
X26616600Y-18478500D03*
X29064000Y-18421700D03*
D16*
X26308600Y-25031700D03*
X28848600Y-25031700D03*
D17*
X28949000Y-21588000D03*
%TD*%
D18*
%TO.C,U1*%
X8000000Y-8000000D03*
D19*
X6543750Y-7250000D03*
X6543750Y-7750000D03*
X6543750Y-8250000D03*
X6543750Y-8750000D03*
D20*
X7250000Y-9456250D03*
X7750000Y-9456250D03*
X8250000Y-9456250D03*
X8750000Y-9456250D03*
D19*
X9456250Y-8750000D03*
X9456250Y-8250000D03*
X9456250Y-7750000D03*
X9456250Y-7250000D03*
D20*
X8750000Y-6543750D03*
X8250000Y-6543750D03*
X7750000Y-6543750D03*
X7250000Y-6543750D03*
%TD*%
D21*
%TO.C,U4*%
X49025000Y-33975000D03*
X49675000Y-33975000D03*
X50325000Y-33975000D03*
X50975000Y-33975000D03*
X50975000Y-36025000D03*
X50325000Y-36025000D03*
X49675000Y-36025000D03*
X49025000Y-36025000D03*
%TD*%
M02*
