%TF.GenerationSoftware,KiCad,Pcbnew,10.0.3*%
%TF.CreationDate,2026-05-31T15:12:45-05:00*%
%TF.ProjectId,chameleon_mesh_node_v1,6368616d-656c-4656-9f6e-5f6d6573685f,v1.0*%
%TF.SameCoordinates,Original*%
%TF.FileFunction,Copper,L2,Bot*%
%TF.FilePolarity,Positive*%
%FSLAX46Y46*%
G04 Gerber Fmt 4.6, Leading zero omitted, Abs format (unit mm)*
G04 Created by KiCad (PCBNEW 10.0.3) date 2026-05-31 15:12:45*
%MOMM*%
%LPD*%
G01*
G04 APERTURE LIST*
G04 Aperture macros list*
%AMRoundRect*
0 Rectangle with rounded corners*
0 $1 Rounding radius*
0 $2 $3 $4 $5 $6 $7 $8 $9 X,Y pos of 4 corners*
0 Add a 4 corners polygon primitive as box body*
4,1,4,$2,$3,$4,$5,$6,$7,$8,$9,$2,$3,0*
0 Add four circle primitives for the rounded corners*
1,1,$1+$1,$2,$3*
1,1,$1+$1,$4,$5*
1,1,$1+$1,$6,$7*
1,1,$1+$1,$8,$9*
0 Add four rect primitives between the rounded corners*
20,1,$1+$1,$2,$3,$4,$5,0*
20,1,$1+$1,$4,$5,$6,$7,0*
20,1,$1+$1,$6,$7,$8,$9,0*
20,1,$1+$1,$8,$9,$2,$3,0*%
G04 Aperture macros list end*
%TA.AperFunction,ComponentPad*%
%ADD10C,5.500000*%
%TD*%
%TA.AperFunction,ComponentPad*%
%ADD11RoundRect,0.250000X-0.350000X-0.625000X0.350000X-0.625000X0.350000X0.625000X-0.350000X0.625000X0*%
%TD*%
%TA.AperFunction,ComponentPad*%
%ADD12O,1.200000X1.750000*%
%TD*%
%TA.AperFunction,ComponentPad*%
%ADD13C,0.700000*%
%TD*%
%TA.AperFunction,ComponentPad*%
%ADD14O,0.900000X2.400000*%
%TD*%
%TA.AperFunction,ComponentPad*%
%ADD15O,0.900000X1.700000*%
%TD*%
%TA.AperFunction,ViaPad*%
%ADD16C,0.600000*%
%TD*%
%TA.AperFunction,Conductor*%
%ADD17C,0.250000*%
%TD*%
G04 APERTURE END LIST*
D10*
%TO.P,H3,*%
%TO.N,*%
X3300000Y-36700000D03*
%TD*%
%TO.P,H2,*%
%TO.N,*%
X56700000Y-3300000D03*
%TD*%
D11*
%TO.P,J2,1*%
%TO.N,VBAT*%
X8000000Y-22000000D03*
D12*
%TO.P,J2,2*%
%TO.N,GND*%
X8000000Y-20000000D03*
%TD*%
D10*
%TO.P,H1,*%
%TO.N,*%
X3300000Y-3300000D03*
%TD*%
%TO.P,H4,*%
%TO.N,*%
X56700000Y-36700000D03*
%TD*%
D13*
%TO.P,J1,A1*%
%TO.N,GND*%
X20000000Y-7000000D03*
%TO.P,J1,A4*%
%TO.N,VBUS*%
X20850000Y-7000000D03*
%TO.P,J1,A5*%
%TO.N,CC1*%
X21700000Y-7000000D03*
%TO.P,J1,A6*%
%TO.N,N/C*%
X22550000Y-7000000D03*
%TO.P,J1,A7*%
X23400000Y-7000000D03*
%TO.P,J1,A8*%
X24250000Y-7000000D03*
%TO.P,J1,A9*%
%TO.N,VBUS*%
X25100000Y-7000000D03*
%TO.P,J1,A12*%
%TO.N,GND*%
X25950000Y-7000000D03*
%TO.P,J1,B1*%
X25950000Y-8350000D03*
%TO.P,J1,B4*%
%TO.N,VBUS*%
X25100000Y-8350000D03*
%TO.P,J1,B5*%
%TO.N,CC2*%
X24250000Y-8350000D03*
%TO.P,J1,B6*%
%TO.N,N/C*%
X23400000Y-8350000D03*
%TO.P,J1,B7*%
X22550000Y-8350000D03*
%TO.P,J1,B8*%
X21700000Y-8350000D03*
%TO.P,J1,B9*%
%TO.N,VBUS*%
X20850000Y-8350000D03*
%TO.P,J1,B12*%
%TO.N,GND*%
X20000000Y-8350000D03*
D14*
%TO.P,J1,SH*%
X18650000Y-7980000D03*
D15*
X18650000Y-11360000D03*
D14*
X27300000Y-7980000D03*
D15*
X27300000Y-11360000D03*
%TD*%
D16*
%TO.N,I2C_SCL*%
X52050500Y-33498200D03*
X52505300Y-29520100D03*
%TO.N,I2C_SDA*%
X32867100Y-30049700D03*
X42470100Y-33585700D03*
%TO.N,+3V3*%
X32867100Y-24306700D03*
X41850900Y-29632000D03*
X49119400Y-34867600D03*
%TO.N,UART_BRIDGE_RX*%
X42091400Y-32514400D03*
X37971500Y-33621000D03*
%TO.N,UART_BRIDGE_TX*%
X54033700Y-29632000D03*
X52725300Y-38609200D03*
%TD*%
%TO.N,GND*%
D17*
X27226900Y-8350000D02*
X25950000Y-8350000D01*
X25950000Y-8350000D02*
X25950000Y-7000000D01*
X27300000Y-11360000D02*
X27300000Y-10183300D01*
X11186700Y-20000000D02*
X18650000Y-12536700D01*
X27300000Y-7980000D02*
X27226900Y-8053100D01*
X27300000Y-10183300D02*
X27300000Y-11360000D01*
X27300000Y-7980000D02*
X27226900Y-8053100D01*
X27226900Y-8350000D02*
X27226900Y-10110200D01*
X20000000Y-8350000D02*
X20000000Y-7000000D01*
X27226900Y-10110200D02*
X27300000Y-10183300D01*
X18650000Y-12536700D02*
X18650000Y-11360000D01*
X27226900Y-8350000D02*
X27226900Y-10110200D01*
X11186700Y-20000000D02*
X18650000Y-12536700D01*
X18650000Y-11360000D02*
X18650000Y-12536700D01*
X8000000Y-20000000D02*
X11186700Y-20000000D01*
X18650000Y-11360000D02*
X18650000Y-7980000D01*
X27226900Y-8053100D02*
X27226900Y-8350000D01*
%TO.N,I2C_SCL*%
X52050500Y-29974900D02*
X52505300Y-29520100D01*
X52050500Y-33498200D02*
X52050500Y-29974900D01*
%TO.N,I2C_SDA*%
X41750000Y-34305800D02*
X42470100Y-33585700D01*
X37123200Y-34305800D02*
X41750000Y-34305800D01*
X32867100Y-30049700D02*
X37123200Y-34305800D01*
%TO.N,+3V3*%
X32867100Y-24306700D02*
X38192400Y-29632000D01*
X43883800Y-29632000D02*
X41850900Y-29632000D01*
X38192400Y-29632000D02*
X41850900Y-29632000D01*
X49119400Y-34867600D02*
X43883800Y-29632000D01*
%TO.N,UART_BRIDGE_RX*%
X37971500Y-33621000D02*
X39078100Y-32514400D01*
X39078100Y-32514400D02*
X42091400Y-32514400D01*
%TO.N,UART_BRIDGE_TX*%
X52725300Y-38609200D02*
X52725300Y-30940400D01*
X52725300Y-30940400D02*
X54033700Y-29632000D01*
%TO.N,VBUS*%
X24584600Y-6315800D02*
X21420400Y-6315800D01*
X20850000Y-8350000D02*
X20850000Y-7000000D01*
X20850000Y-6886200D02*
X20850000Y-7000000D01*
X25100000Y-6831200D02*
X24584600Y-6315800D01*
X25100000Y-7000000D02*
X25100000Y-6831200D01*
X21420400Y-6315800D02*
X20850000Y-6886200D01*
X25100000Y-8350000D02*
X25100000Y-7000000D01*
%TD*%
%TA.AperFunction,Conductor*%
%TO.N,GND*%
G36*
X55230236Y-519407D02*
G01*
X55266200Y-568907D01*
X55266200Y-630093D01*
X55230236Y-679593D01*
X55224737Y-683311D01*
X55049576Y-793372D01*
X54960957Y-849056D01*
X54960954Y-849058D01*
X54697487Y-1059165D01*
X54459165Y-1297487D01*
X54249058Y-1560954D01*
X54249056Y-1560957D01*
X54069752Y-1846316D01*
X54069746Y-1846328D01*
X53923531Y-2149948D01*
X53923530Y-2149950D01*
X53812224Y-2468042D01*
X53737232Y-2796607D01*
X53699500Y-3131494D01*
X53699500Y-3468505D01*
X53737232Y-3803392D01*
X53812224Y-4131957D01*
X53923530Y-4450049D01*
X53923531Y-4450051D01*
X54069746Y-4753671D01*
X54069752Y-4753683D01*
X54249056Y-5039042D01*
X54249058Y-5039045D01*
X54459165Y-5302512D01*
X54459171Y-5302518D01*
X54459175Y-5302523D01*
X54697477Y-5540825D01*
X54697481Y-5540828D01*
X54697487Y-5540834D01*
X54960954Y-5750941D01*
X54960958Y-5750943D01*
X54960961Y-5750946D01*
X55246314Y-5930246D01*
X55246316Y-5930247D01*
X55246328Y-5930253D01*
X55347205Y-5978832D01*
X55549949Y-6076469D01*
X55698440Y-6128428D01*
X55868042Y-6187775D01*
X55868045Y-6187775D01*
X55868046Y-6187776D01*
X56196606Y-6262767D01*
X56531496Y-6300500D01*
X56531497Y-6300500D01*
X56868503Y-6300500D01*
X56868504Y-6300500D01*
X57203394Y-6262767D01*
X57531954Y-6187776D01*
X57850051Y-6076469D01*
X58153686Y-5930246D01*
X58439039Y-5750946D01*
X58702523Y-5540825D01*
X58940825Y-5302523D01*
X59150946Y-5039039D01*
X59316676Y-4775282D01*
X59363643Y-4736072D01*
X59424690Y-4731956D01*
X59476497Y-4764508D01*
X59499276Y-4821295D01*
X59499500Y-4827955D01*
X59499500Y-35172044D01*
X59480593Y-35230235D01*
X59431093Y-35266199D01*
X59369907Y-35266199D01*
X59320407Y-35230235D01*
X59316674Y-35224715D01*
X59304673Y-35205615D01*
X59150946Y-34960961D01*
X59150943Y-34960957D01*
X59150941Y-34960954D01*
X58940834Y-34697487D01*
X58940828Y-34697481D01*
X58940825Y-34697477D01*
X58702523Y-34459175D01*
X58702518Y-34459171D01*
X58702512Y-34459165D01*
X58439045Y-34249058D01*
X58439042Y-34249056D01*
X58153683Y-34069752D01*
X58153671Y-34069746D01*
X57850051Y-33923531D01*
X57850049Y-33923530D01*
X57531957Y-33812224D01*
X57203392Y-33737232D01*
X56868505Y-33699500D01*
X56868504Y-33699500D01*
X56531496Y-33699500D01*
X56531494Y-33699500D01*
X56196607Y-33737232D01*
X55868042Y-33812224D01*
X55549950Y-33923530D01*
X55549948Y-33923531D01*
X55246328Y-34069746D01*
X55246316Y-34069752D01*
X54960957Y-34249056D01*
X54960954Y-34249058D01*
X54697487Y-34459165D01*
X54459165Y-34697487D01*
X54249058Y-34960954D01*
X54249056Y-34960957D01*
X54069752Y-35246316D01*
X54069746Y-35246328D01*
X53923531Y-35549948D01*
X53923530Y-35549950D01*
X53812224Y-35868042D01*
X53737232Y-36196607D01*
X53699500Y-36531494D01*
X53699500Y-36868505D01*
X53737232Y-37203392D01*
X53812224Y-37531957D01*
X53923530Y-37850049D01*
X53923531Y-37850051D01*
X54069746Y-38153671D01*
X54069752Y-38153683D01*
X54249056Y-38439042D01*
X54249058Y-38439045D01*
X54459165Y-38702512D01*
X54459171Y-38702518D01*
X54459175Y-38702523D01*
X54697477Y-38940825D01*
X54697481Y-38940828D01*
X54697487Y-38940834D01*
X54960954Y-39150941D01*
X54960958Y-39150943D01*
X54960961Y-39150946D01*
X55224717Y-39316676D01*
X55263928Y-39363643D01*
X55268044Y-39424690D01*
X55235492Y-39476497D01*
X55178705Y-39499276D01*
X55172045Y-39499500D01*
X4827955Y-39499500D01*
X4769764Y-39480593D01*
X4733800Y-39431093D01*
X4733800Y-39369907D01*
X4769764Y-39320407D01*
X4775262Y-39316688D01*
X5039039Y-39150946D01*
X5294510Y-38947215D01*
X5302512Y-38940834D01*
X5302513Y-38940832D01*
X5302523Y-38940825D01*
X5540825Y-38702523D01*
X5557452Y-38681674D01*
X5750941Y-38439045D01*
X5750946Y-38439039D01*
X5930246Y-38153686D01*
X6076469Y-37850051D01*
X6187776Y-37531954D01*
X6262767Y-37203394D01*
X6300500Y-36868504D01*
X6300500Y-36531496D01*
X6262767Y-36196606D01*
X6187776Y-35868046D01*
X6076469Y-35549949D01*
X5930246Y-35246314D01*
X5750946Y-34960961D01*
X5750943Y-34960957D01*
X5750941Y-34960954D01*
X5540834Y-34697487D01*
X5540828Y-34697481D01*
X5540825Y-34697477D01*
X5302523Y-34459175D01*
X5302518Y-34459171D01*
X5302512Y-34459165D01*
X5039045Y-34249058D01*
X5039042Y-34249056D01*
X4753683Y-34069752D01*
X4753671Y-34069746D01*
X4450051Y-33923531D01*
X4450049Y-33923530D01*
X4131957Y-33812224D01*
X3803392Y-33737232D01*
X3468505Y-33699500D01*
X3468504Y-33699500D01*
X3131496Y-33699500D01*
X3131494Y-33699500D01*
X2796607Y-33737232D01*
X2468042Y-33812224D01*
X2149950Y-33923530D01*
X2149948Y-33923531D01*
X1846328Y-34069746D01*
X1846316Y-34069752D01*
X1560957Y-34249056D01*
X1560954Y-34249058D01*
X1297487Y-34459165D01*
X1059165Y-34697487D01*
X849058Y-34960954D01*
X849056Y-34960957D01*
X683326Y-35224715D01*
X636357Y-35263927D01*
X575310Y-35268043D01*
X523503Y-35235491D01*
X500724Y-35178703D01*
X500500Y-35172044D01*
X500500Y-29977225D01*
X32316600Y-29977225D01*
X32316600Y-30122175D01*
X32322711Y-30144982D01*
X32354117Y-30262189D01*
X32426587Y-30387710D01*
X32426589Y-30387712D01*
X32426591Y-30387715D01*
X32529085Y-30490209D01*
X32529087Y-30490210D01*
X32529089Y-30490212D01*
X32654611Y-30562682D01*
X32654612Y-30562682D01*
X32654615Y-30562684D01*
X32794625Y-30600200D01*
X32845555Y-30600200D01*
X32903746Y-30619107D01*
X32915559Y-30629196D01*
X36822725Y-34536362D01*
X36822724Y-34536362D01*
X36892638Y-34606275D01*
X36978258Y-34655708D01*
X36978262Y-34655710D01*
X37026012Y-34668505D01*
X37026013Y-34668505D01*
X37073764Y-34681300D01*
X37073765Y-34681300D01*
X41799436Y-34681300D01*
X41847186Y-34668505D01*
X41847187Y-34668505D01*
X41894934Y-34655711D01*
X41894933Y-34655711D01*
X41894938Y-34655710D01*
X41980562Y-34606275D01*
X42050475Y-34536362D01*
X42421641Y-34165196D01*
X42476158Y-34137419D01*
X42491645Y-34136200D01*
X42542574Y-34136200D01*
X42542575Y-34136200D01*
X42682585Y-34098684D01*
X42682587Y-34098682D01*
X42682589Y-34098682D01*
X42808110Y-34026212D01*
X42808110Y-34026211D01*
X42808115Y-34026209D01*
X42910609Y-33923715D01*
X42946302Y-33861893D01*
X42983082Y-33798189D01*
X42983082Y-33798187D01*
X42983084Y-33798185D01*
X43020600Y-33658175D01*
X43020600Y-33513225D01*
X42983084Y-33373215D01*
X42983082Y-33373212D01*
X42983082Y-33373210D01*
X42910612Y-33247689D01*
X42910610Y-33247687D01*
X42910609Y-33247685D01*
X42808115Y-33145191D01*
X42808112Y-33145189D01*
X42808110Y-33145187D01*
X42682588Y-33072717D01*
X42682584Y-33072715D01*
X42555634Y-33038698D01*
X42504320Y-33005374D01*
X42482394Y-32948252D01*
X42498230Y-32889152D01*
X42511251Y-32873072D01*
X42531909Y-32852415D01*
X42604384Y-32726885D01*
X42641900Y-32586875D01*
X42641900Y-32441925D01*
X42604384Y-32301915D01*
X42604382Y-32301912D01*
X42604382Y-32301910D01*
X42531912Y-32176389D01*
X42531910Y-32176387D01*
X42531909Y-32176385D01*
X42429415Y-32073891D01*
X42429412Y-32073889D01*
X42429410Y-32073887D01*
X42303888Y-32001417D01*
X42303889Y-32001417D01*
X42274296Y-31993487D01*
X42163875Y-31963900D01*
X42018925Y-31963900D01*
X41957190Y-31980441D01*
X41878910Y-32001417D01*
X41753389Y-32073887D01*
X41753383Y-32073892D01*
X41717371Y-32109904D01*
X41662854Y-32137681D01*
X41647368Y-32138900D01*
X39127536Y-32138900D01*
X39028664Y-32138900D01*
X38964996Y-32155959D01*
X38933162Y-32164489D01*
X38847537Y-32213925D01*
X38019959Y-33041504D01*
X37965442Y-33069281D01*
X37949955Y-33070500D01*
X37899025Y-33070500D01*
X37837290Y-33087041D01*
X37759010Y-33108017D01*
X37633489Y-33180487D01*
X37530987Y-33282989D01*
X37458517Y-33408510D01*
X37430459Y-33513225D01*
X37421000Y-33548525D01*
X37421000Y-33693475D01*
X37451065Y-33805677D01*
X37449593Y-33833765D01*
X37449593Y-33861893D01*
X37448004Y-33864079D01*
X37447863Y-33866778D01*
X37430168Y-33888628D01*
X37413629Y-33911393D01*
X37411057Y-33912228D01*
X37409357Y-33914328D01*
X37355438Y-33930300D01*
X37319745Y-33930300D01*
X37261554Y-33911393D01*
X37249741Y-33901304D01*
X33446596Y-30098159D01*
X33418819Y-30043642D01*
X33417600Y-30028155D01*
X33417600Y-29977225D01*
X33415667Y-29970010D01*
X33380084Y-29837215D01*
X33380082Y-29837212D01*
X33380082Y-29837210D01*
X33307612Y-29711689D01*
X33307610Y-29711687D01*
X33307609Y-29711685D01*
X33205115Y-29609191D01*
X33205112Y-29609189D01*
X33205110Y-29609187D01*
X33079588Y-29536717D01*
X33079589Y-29536717D01*
X33049996Y-29528787D01*
X32939575Y-29499200D01*
X32794625Y-29499200D01*
X32732890Y-29515741D01*
X32654610Y-29536717D01*
X32529089Y-29609187D01*
X32426587Y-29711689D01*
X32354117Y-29837210D01*
X32354116Y-29837215D01*
X32316600Y-29977225D01*
X500500Y-29977225D01*
X500500Y-24234225D01*
X32316600Y-24234225D01*
X32316600Y-24379174D01*
X32354117Y-24519189D01*
X32426587Y-24644710D01*
X32426589Y-24644712D01*
X32426591Y-24644715D01*
X32529085Y-24747209D01*
X32529087Y-24747210D01*
X32529089Y-24747212D01*
X32654611Y-24819682D01*
X32654612Y-24819682D01*
X32654615Y-24819684D01*
X32794625Y-24857200D01*
X32845555Y-24857200D01*
X32903746Y-24876107D01*
X32915559Y-24886196D01*
X37891925Y-29862562D01*
X37891924Y-29862562D01*
X37961838Y-29932475D01*
X38047458Y-29981908D01*
X38047462Y-29981910D01*
X38095212Y-29994705D01*
X38095213Y-29994705D01*
X38142964Y-30007500D01*
X38142965Y-30007500D01*
X41406868Y-30007500D01*
X41465059Y-30026407D01*
X41476871Y-30036496D01*
X41512883Y-30072507D01*
X41512889Y-30072512D01*
X41638411Y-30144982D01*
X41638412Y-30144982D01*
X41638415Y-30144984D01*
X41778425Y-30182500D01*
X41778426Y-30182500D01*
X41923374Y-30182500D01*
X41923375Y-30182500D01*
X42063385Y-30144984D01*
X42063387Y-30144982D01*
X42063389Y-30144982D01*
X42188910Y-30072512D01*
X42188910Y-30072511D01*
X42188915Y-30072509D01*
X42206922Y-30054501D01*
X42224929Y-30036496D01*
X42279446Y-30008719D01*
X42294932Y-30007500D01*
X43687255Y-30007500D01*
X43745446Y-30026407D01*
X43757259Y-30036496D01*
X48539904Y-34819141D01*
X48567681Y-34873658D01*
X48568900Y-34889145D01*
X48568900Y-34940075D01*
X48598487Y-35050496D01*
X48606417Y-35080089D01*
X48678887Y-35205610D01*
X48678889Y-35205612D01*
X48678891Y-35205615D01*
X48781385Y-35308109D01*
X48781387Y-35308110D01*
X48781389Y-35308112D01*
X48906911Y-35380582D01*
X48906912Y-35380582D01*
X48906915Y-35380584D01*
X49046925Y-35418100D01*
X49046926Y-35418100D01*
X49191874Y-35418100D01*
X49191875Y-35418100D01*
X49331885Y-35380584D01*
X49331887Y-35380582D01*
X49331889Y-35380582D01*
X49457410Y-35308112D01*
X49457410Y-35308111D01*
X49457415Y-35308109D01*
X49559909Y-35205615D01*
X49632384Y-35080085D01*
X49669900Y-34940075D01*
X49669900Y-34795125D01*
X49632384Y-34655115D01*
X49632382Y-34655112D01*
X49632382Y-34655110D01*
X49559912Y-34529589D01*
X49559910Y-34529587D01*
X49559909Y-34529585D01*
X49457415Y-34427091D01*
X49457412Y-34427089D01*
X49457410Y-34427087D01*
X49331888Y-34354617D01*
X49331889Y-34354617D01*
X49302296Y-34346687D01*
X49191875Y-34317100D01*
X49191874Y-34317100D01*
X49140945Y-34317100D01*
X49082754Y-34298193D01*
X49070941Y-34288104D01*
X48208562Y-33425725D01*
X51500000Y-33425725D01*
X51500000Y-33570675D01*
X51517011Y-33634159D01*
X51537517Y-33710689D01*
X51609987Y-33836210D01*
X51609989Y-33836212D01*
X51609991Y-33836215D01*
X51712485Y-33938709D01*
X51712487Y-33938710D01*
X51712489Y-33938712D01*
X51838011Y-34011182D01*
X51838012Y-34011182D01*
X51838015Y-34011184D01*
X51978025Y-34048700D01*
X51978026Y-34048700D01*
X52122976Y-34048700D01*
X52122976Y-34048699D01*
X52225176Y-34021315D01*
X52286278Y-34024516D01*
X52333828Y-34063021D01*
X52349800Y-34116941D01*
X52349800Y-38165168D01*
X52330893Y-38223359D01*
X52320804Y-38235171D01*
X52284792Y-38271183D01*
X52284787Y-38271189D01*
X52212317Y-38396710D01*
X52174800Y-38536725D01*
X52174800Y-38681675D01*
X52180386Y-38702523D01*
X52212317Y-38821689D01*
X52284787Y-38947210D01*
X52284789Y-38947212D01*
X52284791Y-38947215D01*
X52387285Y-39049709D01*
X52387287Y-39049710D01*
X52387289Y-39049712D01*
X52512811Y-39122182D01*
X52512812Y-39122182D01*
X52512815Y-39122184D01*
X52652825Y-39159700D01*
X52652826Y-39159700D01*
X52797774Y-39159700D01*
X52797775Y-39159700D01*
X52937785Y-39122184D01*
X52937787Y-39122182D01*
X52937789Y-39122182D01*
X53063310Y-39049712D01*
X53063310Y-39049711D01*
X53063315Y-39049709D01*
X53165809Y-38947215D01*
X53238284Y-38821685D01*
X53275800Y-38681675D01*
X53275800Y-38536725D01*
X53238284Y-38396715D01*
X53238282Y-38396712D01*
X53238282Y-38396710D01*
X53165812Y-38271189D01*
X53165807Y-38271183D01*
X53129796Y-38235171D01*
X53102019Y-38180654D01*
X53100800Y-38165168D01*
X53100800Y-31136945D01*
X53119707Y-31078754D01*
X53129796Y-31066941D01*
X53985241Y-30211496D01*
X54039758Y-30183719D01*
X54055245Y-30182500D01*
X54106174Y-30182500D01*
X54106175Y-30182500D01*
X54246185Y-30144984D01*
X54246187Y-30144982D01*
X54246189Y-30144982D01*
X54371710Y-30072512D01*
X54371710Y-30072511D01*
X54371715Y-30072509D01*
X54474209Y-29970015D01*
X54502742Y-29920595D01*
X54546682Y-29844489D01*
X54546682Y-29844487D01*
X54546684Y-29844485D01*
X54584200Y-29704475D01*
X54584200Y-29559525D01*
X54546684Y-29419515D01*
X54546682Y-29419512D01*
X54546682Y-29419510D01*
X54474212Y-29293989D01*
X54474210Y-29293987D01*
X54474209Y-29293985D01*
X54371715Y-29191491D01*
X54371712Y-29191489D01*
X54371710Y-29191487D01*
X54246188Y-29119017D01*
X54246189Y-29119017D01*
X54216596Y-29111087D01*
X54106175Y-29081500D01*
X53961225Y-29081500D01*
X53899490Y-29098041D01*
X53821210Y-29119017D01*
X53695689Y-29191487D01*
X53593187Y-29293989D01*
X53520717Y-29419510D01*
X53483200Y-29559525D01*
X53483200Y-29610455D01*
X53464293Y-29668646D01*
X53454204Y-29680459D01*
X52595004Y-30539659D01*
X52540487Y-30567436D01*
X52480055Y-30557865D01*
X52436790Y-30514600D01*
X52426000Y-30469655D01*
X52426000Y-30171445D01*
X52428468Y-30163847D01*
X52427219Y-30155958D01*
X52437743Y-30135302D01*
X52444907Y-30113254D01*
X52454996Y-30101441D01*
X52456841Y-30099596D01*
X52511358Y-30071819D01*
X52526845Y-30070600D01*
X52577774Y-30070600D01*
X52577775Y-30070600D01*
X52717785Y-30033084D01*
X52717787Y-30033082D01*
X52717789Y-30033082D01*
X52843310Y-29960612D01*
X52843310Y-29960611D01*
X52843315Y-29960609D01*
X52945809Y-29858115D01*
X52962065Y-29829959D01*
X53018282Y-29732589D01*
X53018282Y-29732587D01*
X53018284Y-29732585D01*
X53055800Y-29592575D01*
X53055800Y-29447625D01*
X53018284Y-29307615D01*
X53018282Y-29307612D01*
X53018282Y-29307610D01*
X52945812Y-29182089D01*
X52945810Y-29182087D01*
X52945809Y-29182085D01*
X52843315Y-29079591D01*
X52843312Y-29079589D01*
X52843310Y-29079587D01*
X52717788Y-29007117D01*
X52717789Y-29007117D01*
X52688196Y-28999187D01*
X52577775Y-28969600D01*
X52432825Y-28969600D01*
X52371090Y-28986141D01*
X52292810Y-29007117D01*
X52167289Y-29079587D01*
X52064787Y-29182089D01*
X51992317Y-29307610D01*
X51954800Y-29447625D01*
X51954800Y-29498555D01*
X51935893Y-29556746D01*
X51925804Y-29568559D01*
X51819938Y-29674425D01*
X51819937Y-29674424D01*
X51750024Y-29744338D01*
X51700591Y-29829959D01*
X51700590Y-29829961D01*
X51691854Y-29862561D01*
X51691855Y-29862562D01*
X51676306Y-29920592D01*
X51676305Y-29920595D01*
X51675000Y-29925464D01*
X51675000Y-33054168D01*
X51656093Y-33112359D01*
X51646004Y-33124171D01*
X51609992Y-33160183D01*
X51609987Y-33160189D01*
X51537517Y-33285710D01*
X51514070Y-33373215D01*
X51500000Y-33425725D01*
X48208562Y-33425725D01*
X44114363Y-29331526D01*
X44114363Y-29331525D01*
X44028741Y-29282091D01*
X44028737Y-29282089D01*
X43941794Y-29258792D01*
X43941789Y-29258792D01*
X43933236Y-29256500D01*
X43933235Y-29256500D01*
X42294932Y-29256500D01*
X42236741Y-29237593D01*
X42224929Y-29227504D01*
X42188916Y-29191492D01*
X42188910Y-29191487D01*
X42063388Y-29119017D01*
X42063389Y-29119017D01*
X42033796Y-29111087D01*
X41923375Y-29081500D01*
X41778425Y-29081500D01*
X41716690Y-29098041D01*
X41638410Y-29119017D01*
X41512889Y-29191487D01*
X41512883Y-29191492D01*
X41476871Y-29227504D01*
X41422354Y-29255281D01*
X41406868Y-29256500D01*
X38388945Y-29256500D01*
X38330754Y-29237593D01*
X38318941Y-29227504D01*
X33446596Y-24355159D01*
X33418819Y-24300642D01*
X33417600Y-24285155D01*
X33417600Y-24234225D01*
X33380084Y-24094215D01*
X33380082Y-24094212D01*
X33380082Y-24094210D01*
X33307612Y-23968689D01*
X33307610Y-23968687D01*
X33307609Y-23968685D01*
X33205115Y-23866191D01*
X33205112Y-23866189D01*
X33205110Y-23866187D01*
X33079588Y-23793717D01*
X33079589Y-23793717D01*
X33049996Y-23785787D01*
X32939575Y-23756200D01*
X32794625Y-23756200D01*
X32732890Y-23772741D01*
X32654610Y-23793717D01*
X32529089Y-23866187D01*
X32426587Y-23968689D01*
X32354117Y-24094210D01*
X32316600Y-24234225D01*
X500500Y-24234225D01*
X500500Y-21327129D01*
X7149500Y-21327129D01*
X7149500Y-22672866D01*
X7149501Y-22672870D01*
X7155908Y-22732480D01*
X7155909Y-22732485D01*
X7206202Y-22867329D01*
X7292450Y-22982541D01*
X7292454Y-22982546D01*
X7292457Y-22982548D01*
X7292458Y-22982549D01*
X7407670Y-23068797D01*
X7542511Y-23119089D01*
X7542512Y-23119089D01*
X7542517Y-23119091D01*
X7602127Y-23125500D01*
X8397872Y-23125499D01*
X8457483Y-23119091D01*
X8524907Y-23093943D01*
X8592329Y-23068797D01*
X8592329Y-23068796D01*
X8592331Y-23068796D01*
X8707546Y-22982546D01*
X8793796Y-22867331D01*
X8844091Y-22732483D01*
X8850500Y-22672873D01*
X8850499Y-21327128D01*
X8844091Y-21267517D01*
X8844089Y-21267511D01*
X8793797Y-21132670D01*
X8707549Y-21017458D01*
X8707548Y-21017457D01*
X8707546Y-21017454D01*
X8657227Y-20979785D01*
X8621974Y-20929776D01*
X8622848Y-20868597D01*
X8646554Y-20830526D01*
X8660237Y-20816843D01*
X8660239Y-20816840D01*
X8753259Y-20677626D01*
X8817335Y-20522934D01*
X8849999Y-20358720D01*
X8850000Y-20358716D01*
X8850000Y-20150001D01*
X8849999Y-20150000D01*
X8346410Y-20150000D01*
X8349444Y-20144745D01*
X8375000Y-20049370D01*
X8375000Y-19950630D01*
X8349444Y-19855255D01*
X8346410Y-19850000D01*
X8849999Y-19850000D01*
X8850000Y-19849999D01*
X8850000Y-19641283D01*
X8849999Y-19641279D01*
X8817335Y-19477065D01*
X8753260Y-19322374D01*
X8660240Y-19183159D01*
X8541840Y-19064759D01*
X8402625Y-18971739D01*
X8247939Y-18907666D01*
X8247933Y-18907664D01*
X8150000Y-18888184D01*
X8150000Y-19653589D01*
X8144745Y-19650556D01*
X8049370Y-19625000D01*
X7950630Y-19625000D01*
X7855255Y-19650556D01*
X7850000Y-19653589D01*
X7850000Y-18888184D01*
X7752066Y-18907664D01*
X7752060Y-18907666D01*
X7597374Y-18971739D01*
X7458159Y-19064759D01*
X7339759Y-19183159D01*
X7246739Y-19322374D01*
X7182664Y-19477065D01*
X7150000Y-19641279D01*
X7150000Y-19849999D01*
X7150001Y-19850000D01*
X7653590Y-19850000D01*
X7650556Y-19855255D01*
X7625000Y-19950630D01*
X7625000Y-20049370D01*
X7650556Y-20144745D01*
X7653590Y-20150000D01*
X7150001Y-20150000D01*
X7150000Y-20150001D01*
X7150000Y-20358720D01*
X7182664Y-20522934D01*
X7246739Y-20677625D01*
X7339759Y-20816840D01*
X7353447Y-20830528D01*
X7381224Y-20885045D01*
X7371653Y-20945477D01*
X7342773Y-20979785D01*
X7292455Y-21017453D01*
X7292450Y-21017458D01*
X7206202Y-21132670D01*
X7155910Y-21267511D01*
X7155908Y-21267522D01*
X7149500Y-21327129D01*
X500500Y-21327129D01*
X500500Y-6936741D01*
X20369500Y-6936741D01*
X20369500Y-7063259D01*
X20402245Y-7185466D01*
X20424999Y-7224878D01*
X20461236Y-7287641D01*
X20474500Y-7337141D01*
X20474500Y-8012858D01*
X20461237Y-8062355D01*
X20402245Y-8164534D01*
X20369500Y-8286741D01*
X20369500Y-8413259D01*
X20402245Y-8535466D01*
X20465504Y-8645034D01*
X20554966Y-8734496D01*
X20664534Y-8797755D01*
X20786741Y-8830500D01*
X20786743Y-8830500D01*
X20913257Y-8830500D01*
X20913259Y-8830500D01*
X21035466Y-8797755D01*
X21145034Y-8734496D01*
X21204998Y-8674531D01*
X21259513Y-8646756D01*
X21319945Y-8656327D01*
X21345000Y-8674530D01*
X21404966Y-8734496D01*
X21514534Y-8797755D01*
X21636741Y-8830500D01*
X21636743Y-8830500D01*
X21763257Y-8830500D01*
X21763259Y-8830500D01*
X21885466Y-8797755D01*
X21995034Y-8734496D01*
X22054998Y-8674531D01*
X22109513Y-8646756D01*
X22169945Y-8656327D01*
X22195000Y-8674530D01*
X22254966Y-8734496D01*
X22364534Y-8797755D01*
X22486741Y-8830500D01*
X22486743Y-8830500D01*
X22613257Y-8830500D01*
X22613259Y-8830500D01*
X22735466Y-8797755D01*
X22845034Y-8734496D01*
X22904998Y-8674531D01*
X22959513Y-8646756D01*
X23019945Y-8656327D01*
X23045000Y-8674530D01*
X23104966Y-8734496D01*
X23214534Y-8797755D01*
X23336741Y-8830500D01*
X23336743Y-8830500D01*
X23463257Y-8830500D01*
X23463259Y-8830500D01*
X23585466Y-8797755D01*
X23695034Y-8734496D01*
X23754998Y-8674531D01*
X23809513Y-8646756D01*
X23869945Y-8656327D01*
X23895000Y-8674530D01*
X23954966Y-8734496D01*
X24064534Y-8797755D01*
X24186741Y-8830500D01*
X24186743Y-8830500D01*
X24313257Y-8830500D01*
X24313259Y-8830500D01*
X24435466Y-8797755D01*
X24545034Y-8734496D01*
X24604998Y-8674531D01*
X24659513Y-8646756D01*
X24719945Y-8656327D01*
X24745000Y-8674530D01*
X24804966Y-8734496D01*
X24914534Y-8797755D01*
X25036741Y-8830500D01*
X25036743Y-8830500D01*
X25163257Y-8830500D01*
X25163259Y-8830500D01*
X25285466Y-8797755D01*
X25395034Y-8734496D01*
X25484496Y-8645034D01*
X25547755Y-8535466D01*
X25580500Y-8413259D01*
X25580500Y-8286741D01*
X25547755Y-8164534D01*
X25488762Y-8062355D01*
X25475500Y-8012858D01*
X25475500Y-7337141D01*
X25488764Y-7287641D01*
X25547755Y-7185466D01*
X25580500Y-7063259D01*
X25580500Y-6936741D01*
X25547755Y-6814534D01*
X25484496Y-6704966D01*
X25470830Y-6691300D01*
X25437429Y-6657898D01*
X25421696Y-6637394D01*
X25409057Y-6615502D01*
X25400475Y-6600637D01*
X24815163Y-6015326D01*
X24815163Y-6015325D01*
X24729541Y-5965891D01*
X24729534Y-5965888D01*
X24681785Y-5953094D01*
X24681784Y-5953094D01*
X24634038Y-5940300D01*
X24634036Y-5940300D01*
X24634035Y-5940300D01*
X21469836Y-5940300D01*
X21370964Y-5940300D01*
X21323213Y-5953095D01*
X21323212Y-5953094D01*
X21275462Y-5965889D01*
X21275458Y-5965891D01*
X21189836Y-6015325D01*
X21189829Y-6015333D01*
X20646263Y-6558897D01*
X20625761Y-6574629D01*
X20554968Y-6615502D01*
X20554966Y-6615504D01*
X20465504Y-6704966D01*
X20402245Y-6814534D01*
X20369500Y-6936741D01*
X500500Y-6936741D01*
X500500Y-4827955D01*
X519407Y-4769764D01*
X568907Y-4733800D01*
X630093Y-4733800D01*
X679593Y-4769764D01*
X683311Y-4775262D01*
X716421Y-4827955D01*
X849056Y-5039042D01*
X849058Y-5039045D01*
X1059165Y-5302512D01*
X1059171Y-5302518D01*
X1059175Y-5302523D01*
X1297477Y-5540825D01*
X1297481Y-5540828D01*
X1297487Y-5540834D01*
X1560954Y-5750941D01*
X1560958Y-5750943D01*
X1560961Y-5750946D01*
X1846314Y-5930246D01*
X1846316Y-5930247D01*
X1846328Y-5930253D01*
X1947205Y-5978832D01*
X2149949Y-6076469D01*
X2298440Y-6128428D01*
X2468042Y-6187775D01*
X2468045Y-6187775D01*
X2468046Y-6187776D01*
X2796606Y-6262767D01*
X3131496Y-6300500D01*
X3131497Y-6300500D01*
X3468503Y-6300500D01*
X3468504Y-6300500D01*
X3803394Y-6262767D01*
X4131954Y-6187776D01*
X4450051Y-6076469D01*
X4753686Y-5930246D01*
X5039039Y-5750946D01*
X5302523Y-5540825D01*
X5540825Y-5302523D01*
X5750946Y-5039039D01*
X5930246Y-4753686D01*
X6076469Y-4450051D01*
X6187776Y-4131954D01*
X6262767Y-3803394D01*
X6300500Y-3468504D01*
X6300500Y-3131496D01*
X6262767Y-2796606D01*
X6187776Y-2468046D01*
X6076469Y-2149949D01*
X5930246Y-1846314D01*
X5750946Y-1560961D01*
X5750943Y-1560957D01*
X5750941Y-1560954D01*
X5540834Y-1297487D01*
X5540828Y-1297481D01*
X5540825Y-1297477D01*
X5302523Y-1059175D01*
X5302518Y-1059171D01*
X5302512Y-1059165D01*
X5039045Y-849058D01*
X5039042Y-849056D01*
X5039039Y-849054D01*
X4775282Y-683323D01*
X4736072Y-636357D01*
X4731956Y-575310D01*
X4764508Y-523503D01*
X4821295Y-500724D01*
X4827955Y-500500D01*
X55172045Y-500500D01*
X55230236Y-519407D01*
G37*
%TD.AperFunction*%
%TD*%
M02*
