%TF.GenerationSoftware,KiCad,Pcbnew,10.0.3*%
%TF.CreationDate,2026-06-01T07:00:27-05:00*%
%TF.ProjectId,chameleon_mesh_node_v1,6368616d-656c-4656-9f6e-5f6d6573685f,v1.1*%
%TF.SameCoordinates,Original*%
%TF.FileFunction,AssemblyDrawing,Top*%
%FSLAX46Y46*%
G04 Gerber Fmt 4.6, Leading zero omitted, Abs format (unit mm)*
G04 Created by KiCad (PCBNEW 10.0.3) date 2026-06-01 07:00:27*
%MOMM*%
%LPD*%
G01*
G04 APERTURE LIST*
%ADD10C,0.120000*%
%ADD11C,0.150000*%
%ADD12C,0.073152*%
%ADD13C,0.110000*%
%ADD14C,0.075000*%
%ADD15C,0.100000*%
%ADD16C,0.504000*%
G04 APERTURE END LIST*
D10*
X47061857Y-20835817D02*
X47176143Y-21315817D01*
X47176143Y-21315817D02*
X47267571Y-20972960D01*
X47267571Y-20972960D02*
X47359000Y-21315817D01*
X47359000Y-21315817D02*
X47473286Y-20835817D01*
X47656142Y-21315817D02*
X47656142Y-20995817D01*
X47656142Y-20835817D02*
X47633285Y-20858674D01*
X47633285Y-20858674D02*
X47656142Y-20881531D01*
X47656142Y-20881531D02*
X47678999Y-20858674D01*
X47678999Y-20858674D02*
X47656142Y-20835817D01*
X47656142Y-20835817D02*
X47656142Y-20881531D01*
X47953285Y-21315817D02*
X47907570Y-21292960D01*
X47907570Y-21292960D02*
X47884713Y-21270102D01*
X47884713Y-21270102D02*
X47861856Y-21224388D01*
X47861856Y-21224388D02*
X47861856Y-21087245D01*
X47861856Y-21087245D02*
X47884713Y-21041531D01*
X47884713Y-21041531D02*
X47907570Y-21018674D01*
X47907570Y-21018674D02*
X47953285Y-20995817D01*
X47953285Y-20995817D02*
X48021856Y-20995817D01*
X48021856Y-20995817D02*
X48067570Y-21018674D01*
X48067570Y-21018674D02*
X48090428Y-21041531D01*
X48090428Y-21041531D02*
X48113285Y-21087245D01*
X48113285Y-21087245D02*
X48113285Y-21224388D01*
X48113285Y-21224388D02*
X48090428Y-21270102D01*
X48090428Y-21270102D02*
X48067570Y-21292960D01*
X48067570Y-21292960D02*
X48021856Y-21315817D01*
X48021856Y-21315817D02*
X47953285Y-21315817D01*
X48318999Y-21132960D02*
X48684714Y-21132960D01*
X48867571Y-20835817D02*
X48981857Y-21315817D01*
X48981857Y-21315817D02*
X49073285Y-20972960D01*
X49073285Y-20972960D02*
X49164714Y-21315817D01*
X49164714Y-21315817D02*
X49279000Y-20835817D01*
X49461856Y-21315817D02*
X49461856Y-20835817D01*
X49461856Y-20835817D02*
X49621856Y-21178674D01*
X49621856Y-21178674D02*
X49781856Y-20835817D01*
X49781856Y-20835817D02*
X49781856Y-21315817D01*
X50261856Y-21315817D02*
X49987570Y-21315817D01*
X50124713Y-21315817D02*
X50124713Y-20835817D01*
X50124713Y-20835817D02*
X50078999Y-20904388D01*
X50078999Y-20904388D02*
X50033284Y-20950102D01*
X50033284Y-20950102D02*
X49987570Y-20972960D01*
X50718999Y-21315817D02*
X50444713Y-21315817D01*
X50581856Y-21315817D02*
X50581856Y-20835817D01*
X50581856Y-20835817D02*
X50536142Y-20904388D01*
X50536142Y-20904388D02*
X50490427Y-20950102D01*
X50490427Y-20950102D02*
X50444713Y-20972960D01*
X51176142Y-21315817D02*
X50901856Y-21315817D01*
X51038999Y-21315817D02*
X51038999Y-20835817D01*
X51038999Y-20835817D02*
X50993285Y-20904388D01*
X50993285Y-20904388D02*
X50947570Y-20950102D01*
X50947570Y-20950102D02*
X50901856Y-20972960D01*
X51473285Y-20835817D02*
X51518999Y-20835817D01*
X51518999Y-20835817D02*
X51564713Y-20858674D01*
X51564713Y-20858674D02*
X51587571Y-20881531D01*
X51587571Y-20881531D02*
X51610428Y-20927245D01*
X51610428Y-20927245D02*
X51633285Y-21018674D01*
X51633285Y-21018674D02*
X51633285Y-21132960D01*
X51633285Y-21132960D02*
X51610428Y-21224388D01*
X51610428Y-21224388D02*
X51587571Y-21270102D01*
X51587571Y-21270102D02*
X51564713Y-21292960D01*
X51564713Y-21292960D02*
X51518999Y-21315817D01*
X51518999Y-21315817D02*
X51473285Y-21315817D01*
X51473285Y-21315817D02*
X51427571Y-21292960D01*
X51427571Y-21292960D02*
X51404713Y-21270102D01*
X51404713Y-21270102D02*
X51381856Y-21224388D01*
X51381856Y-21224388D02*
X51358999Y-21132960D01*
X51358999Y-21132960D02*
X51358999Y-21018674D01*
X51358999Y-21018674D02*
X51381856Y-20927245D01*
X51381856Y-20927245D02*
X51404713Y-20881531D01*
X51404713Y-20881531D02*
X51427571Y-20858674D01*
X51427571Y-20858674D02*
X51473285Y-20835817D01*
D11*
X1476191Y-40954819D02*
X1476191Y-39954819D01*
X1476191Y-39954819D02*
X1809524Y-40669104D01*
X1809524Y-40669104D02*
X2142857Y-39954819D01*
X2142857Y-39954819D02*
X2142857Y-40954819D01*
X2571429Y-40050057D02*
X2619048Y-40002438D01*
X2619048Y-40002438D02*
X2714286Y-39954819D01*
X2714286Y-39954819D02*
X2952381Y-39954819D01*
X2952381Y-39954819D02*
X3047619Y-40002438D01*
X3047619Y-40002438D02*
X3095238Y-40050057D01*
X3095238Y-40050057D02*
X3142857Y-40145295D01*
X3142857Y-40145295D02*
X3142857Y-40240533D01*
X3142857Y-40240533D02*
X3095238Y-40383390D01*
X3095238Y-40383390D02*
X2523810Y-40954819D01*
X2523810Y-40954819D02*
X3142857Y-40954819D01*
X3571429Y-40859580D02*
X3619048Y-40907200D01*
X3619048Y-40907200D02*
X3571429Y-40954819D01*
X3571429Y-40954819D02*
X3523810Y-40907200D01*
X3523810Y-40907200D02*
X3571429Y-40859580D01*
X3571429Y-40859580D02*
X3571429Y-40954819D01*
X4523809Y-39954819D02*
X4047619Y-39954819D01*
X4047619Y-39954819D02*
X4000000Y-40431009D01*
X4000000Y-40431009D02*
X4047619Y-40383390D01*
X4047619Y-40383390D02*
X4142857Y-40335771D01*
X4142857Y-40335771D02*
X4380952Y-40335771D01*
X4380952Y-40335771D02*
X4476190Y-40383390D01*
X4476190Y-40383390D02*
X4523809Y-40431009D01*
X4523809Y-40431009D02*
X4571428Y-40526247D01*
X4571428Y-40526247D02*
X4571428Y-40764342D01*
X4571428Y-40764342D02*
X4523809Y-40859580D01*
X4523809Y-40859580D02*
X4476190Y-40907200D01*
X4476190Y-40907200D02*
X4380952Y-40954819D01*
X4380952Y-40954819D02*
X4142857Y-40954819D01*
X4142857Y-40954819D02*
X4047619Y-40907200D01*
X4047619Y-40907200D02*
X4000000Y-40859580D01*
D12*
X23445144Y-18912919D02*
X23802776Y-19449367D01*
X23802776Y-18912919D02*
X23445144Y-19449367D01*
X24007137Y-19449367D02*
X24007137Y-18912919D01*
X24237043Y-19296096D02*
X24492495Y-19296096D01*
X24185953Y-19449367D02*
X24364769Y-18912919D01*
X24364769Y-18912919D02*
X24543585Y-19449367D01*
X24824582Y-18912919D02*
X24926762Y-18912919D01*
X24926762Y-18912919D02*
X24977853Y-18938464D01*
X24977853Y-18938464D02*
X25028943Y-18989554D01*
X25028943Y-18989554D02*
X25054488Y-19091735D01*
X25054488Y-19091735D02*
X25054488Y-19270551D01*
X25054488Y-19270551D02*
X25028943Y-19372731D01*
X25028943Y-19372731D02*
X24977853Y-19423822D01*
X24977853Y-19423822D02*
X24926762Y-19449367D01*
X24926762Y-19449367D02*
X24824582Y-19449367D01*
X24824582Y-19449367D02*
X24773492Y-19423822D01*
X24773492Y-19423822D02*
X24722401Y-19372731D01*
X24722401Y-19372731D02*
X24696856Y-19270551D01*
X24696856Y-19270551D02*
X24696856Y-19091735D01*
X24696856Y-19091735D02*
X24722401Y-18989554D01*
X24722401Y-18989554D02*
X24773492Y-18938464D01*
X24773492Y-18938464D02*
X24824582Y-18912919D01*
X25284394Y-19245006D02*
X25693117Y-19245006D01*
X25948568Y-19168370D02*
X26127384Y-19168370D01*
X26204020Y-19449367D02*
X25948568Y-19449367D01*
X25948568Y-19449367D02*
X25948568Y-18912919D01*
X25948568Y-18912919D02*
X26204020Y-18912919D01*
X26408381Y-19423822D02*
X26485017Y-19449367D01*
X26485017Y-19449367D02*
X26612742Y-19449367D01*
X26612742Y-19449367D02*
X26663833Y-19423822D01*
X26663833Y-19423822D02*
X26689378Y-19398276D01*
X26689378Y-19398276D02*
X26714923Y-19347186D01*
X26714923Y-19347186D02*
X26714923Y-19296096D01*
X26714923Y-19296096D02*
X26689378Y-19245006D01*
X26689378Y-19245006D02*
X26663833Y-19219460D01*
X26663833Y-19219460D02*
X26612742Y-19193915D01*
X26612742Y-19193915D02*
X26510562Y-19168370D01*
X26510562Y-19168370D02*
X26459471Y-19142825D01*
X26459471Y-19142825D02*
X26433926Y-19117280D01*
X26433926Y-19117280D02*
X26408381Y-19066190D01*
X26408381Y-19066190D02*
X26408381Y-19015099D01*
X26408381Y-19015099D02*
X26433926Y-18964009D01*
X26433926Y-18964009D02*
X26459471Y-18938464D01*
X26459471Y-18938464D02*
X26510562Y-18912919D01*
X26510562Y-18912919D02*
X26638287Y-18912919D01*
X26638287Y-18912919D02*
X26714923Y-18938464D01*
X26944829Y-19449367D02*
X26944829Y-18912919D01*
X26944829Y-18912919D02*
X27149190Y-18912919D01*
X27149190Y-18912919D02*
X27200281Y-18938464D01*
X27200281Y-18938464D02*
X27225826Y-18964009D01*
X27225826Y-18964009D02*
X27251371Y-19015099D01*
X27251371Y-19015099D02*
X27251371Y-19091735D01*
X27251371Y-19091735D02*
X27225826Y-19142825D01*
X27225826Y-19142825D02*
X27200281Y-19168370D01*
X27200281Y-19168370D02*
X27149190Y-19193915D01*
X27149190Y-19193915D02*
X26944829Y-19193915D01*
X27430187Y-18912919D02*
X27762274Y-18912919D01*
X27762274Y-18912919D02*
X27583458Y-19117280D01*
X27583458Y-19117280D02*
X27660093Y-19117280D01*
X27660093Y-19117280D02*
X27711184Y-19142825D01*
X27711184Y-19142825D02*
X27736729Y-19168370D01*
X27736729Y-19168370D02*
X27762274Y-19219460D01*
X27762274Y-19219460D02*
X27762274Y-19347186D01*
X27762274Y-19347186D02*
X27736729Y-19398276D01*
X27736729Y-19398276D02*
X27711184Y-19423822D01*
X27711184Y-19423822D02*
X27660093Y-19449367D01*
X27660093Y-19449367D02*
X27506822Y-19449367D01*
X27506822Y-19449367D02*
X27455732Y-19423822D01*
X27455732Y-19423822D02*
X27430187Y-19398276D01*
X27966635Y-18964009D02*
X27992180Y-18938464D01*
X27992180Y-18938464D02*
X28043271Y-18912919D01*
X28043271Y-18912919D02*
X28170996Y-18912919D01*
X28170996Y-18912919D02*
X28222087Y-18938464D01*
X28222087Y-18938464D02*
X28247632Y-18964009D01*
X28247632Y-18964009D02*
X28273177Y-19015099D01*
X28273177Y-19015099D02*
X28273177Y-19066190D01*
X28273177Y-19066190D02*
X28247632Y-19142825D01*
X28247632Y-19142825D02*
X27941090Y-19449367D01*
X27941090Y-19449367D02*
X28273177Y-19449367D01*
X28503083Y-19245006D02*
X28911806Y-19245006D01*
X29473799Y-19398276D02*
X29448254Y-19423822D01*
X29448254Y-19423822D02*
X29371618Y-19449367D01*
X29371618Y-19449367D02*
X29320528Y-19449367D01*
X29320528Y-19449367D02*
X29243893Y-19423822D01*
X29243893Y-19423822D02*
X29192802Y-19372731D01*
X29192802Y-19372731D02*
X29167257Y-19321641D01*
X29167257Y-19321641D02*
X29141712Y-19219460D01*
X29141712Y-19219460D02*
X29141712Y-19142825D01*
X29141712Y-19142825D02*
X29167257Y-19040644D01*
X29167257Y-19040644D02*
X29192802Y-18989554D01*
X29192802Y-18989554D02*
X29243893Y-18938464D01*
X29243893Y-18938464D02*
X29320528Y-18912919D01*
X29320528Y-18912919D02*
X29371618Y-18912919D01*
X29371618Y-18912919D02*
X29448254Y-18938464D01*
X29448254Y-18938464D02*
X29473799Y-18964009D01*
X29959157Y-18912919D02*
X29703705Y-18912919D01*
X29703705Y-18912919D02*
X29678160Y-19168370D01*
X29678160Y-19168370D02*
X29703705Y-19142825D01*
X29703705Y-19142825D02*
X29754796Y-19117280D01*
X29754796Y-19117280D02*
X29882521Y-19117280D01*
X29882521Y-19117280D02*
X29933612Y-19142825D01*
X29933612Y-19142825D02*
X29959157Y-19168370D01*
X29959157Y-19168370D02*
X29984702Y-19219460D01*
X29984702Y-19219460D02*
X29984702Y-19347186D01*
X29984702Y-19347186D02*
X29959157Y-19398276D01*
X29959157Y-19398276D02*
X29933612Y-19423822D01*
X29933612Y-19423822D02*
X29882521Y-19449367D01*
X29882521Y-19449367D02*
X29754796Y-19449367D01*
X29754796Y-19449367D02*
X29703705Y-19423822D01*
X29703705Y-19423822D02*
X29678160Y-19398276D01*
X30214608Y-19245006D02*
X30623331Y-19245006D01*
X30853237Y-19423822D02*
X30929873Y-19449367D01*
X30929873Y-19449367D02*
X31057598Y-19449367D01*
X31057598Y-19449367D02*
X31108689Y-19423822D01*
X31108689Y-19423822D02*
X31134234Y-19398276D01*
X31134234Y-19398276D02*
X31159779Y-19347186D01*
X31159779Y-19347186D02*
X31159779Y-19296096D01*
X31159779Y-19296096D02*
X31134234Y-19245006D01*
X31134234Y-19245006D02*
X31108689Y-19219460D01*
X31108689Y-19219460D02*
X31057598Y-19193915D01*
X31057598Y-19193915D02*
X30955418Y-19168370D01*
X30955418Y-19168370D02*
X30904327Y-19142825D01*
X30904327Y-19142825D02*
X30878782Y-19117280D01*
X30878782Y-19117280D02*
X30853237Y-19066190D01*
X30853237Y-19066190D02*
X30853237Y-19015099D01*
X30853237Y-19015099D02*
X30878782Y-18964009D01*
X30878782Y-18964009D02*
X30904327Y-18938464D01*
X30904327Y-18938464D02*
X30955418Y-18912919D01*
X30955418Y-18912919D02*
X31083143Y-18912919D01*
X31083143Y-18912919D02*
X31159779Y-18938464D01*
X31389685Y-19449367D02*
X31389685Y-18912919D01*
X31389685Y-18912919D02*
X31568501Y-19296096D01*
X31568501Y-19296096D02*
X31747317Y-18912919D01*
X31747317Y-18912919D02*
X31747317Y-19449367D01*
X32002768Y-19449367D02*
X32002768Y-18912919D01*
X32002768Y-18912919D02*
X32130494Y-18912919D01*
X32130494Y-18912919D02*
X32207129Y-18938464D01*
X32207129Y-18938464D02*
X32258220Y-18989554D01*
X32258220Y-18989554D02*
X32283765Y-19040644D01*
X32283765Y-19040644D02*
X32309310Y-19142825D01*
X32309310Y-19142825D02*
X32309310Y-19219460D01*
X32309310Y-19219460D02*
X32283765Y-19321641D01*
X32283765Y-19321641D02*
X32258220Y-19372731D01*
X32258220Y-19372731D02*
X32207129Y-19423822D01*
X32207129Y-19423822D02*
X32130494Y-19449367D01*
X32130494Y-19449367D02*
X32002768Y-19449367D01*
D11*
X55476191Y-11954819D02*
X55476191Y-10954819D01*
X55476191Y-10954819D02*
X55809524Y-11669104D01*
X55809524Y-11669104D02*
X56142857Y-10954819D01*
X56142857Y-10954819D02*
X56142857Y-11954819D01*
X56571429Y-11050057D02*
X56619048Y-11002438D01*
X56619048Y-11002438D02*
X56714286Y-10954819D01*
X56714286Y-10954819D02*
X56952381Y-10954819D01*
X56952381Y-10954819D02*
X57047619Y-11002438D01*
X57047619Y-11002438D02*
X57095238Y-11050057D01*
X57095238Y-11050057D02*
X57142857Y-11145295D01*
X57142857Y-11145295D02*
X57142857Y-11240533D01*
X57142857Y-11240533D02*
X57095238Y-11383390D01*
X57095238Y-11383390D02*
X56523810Y-11954819D01*
X56523810Y-11954819D02*
X57142857Y-11954819D01*
X57571429Y-11859580D02*
X57619048Y-11907200D01*
X57619048Y-11907200D02*
X57571429Y-11954819D01*
X57571429Y-11954819D02*
X57523810Y-11907200D01*
X57523810Y-11907200D02*
X57571429Y-11859580D01*
X57571429Y-11859580D02*
X57571429Y-11954819D01*
X58523809Y-10954819D02*
X58047619Y-10954819D01*
X58047619Y-10954819D02*
X58000000Y-11431009D01*
X58000000Y-11431009D02*
X58047619Y-11383390D01*
X58047619Y-11383390D02*
X58142857Y-11335771D01*
X58142857Y-11335771D02*
X58380952Y-11335771D01*
X58380952Y-11335771D02*
X58476190Y-11383390D01*
X58476190Y-11383390D02*
X58523809Y-11431009D01*
X58523809Y-11431009D02*
X58571428Y-11526247D01*
X58571428Y-11526247D02*
X58571428Y-11764342D01*
X58571428Y-11764342D02*
X58523809Y-11859580D01*
X58523809Y-11859580D02*
X58476190Y-11907200D01*
X58476190Y-11907200D02*
X58380952Y-11954819D01*
X58380952Y-11954819D02*
X58142857Y-11954819D01*
X58142857Y-11954819D02*
X58047619Y-11907200D01*
X58047619Y-11907200D02*
X58000000Y-11859580D01*
X9307142Y-21454819D02*
X8830952Y-21454819D01*
X8830952Y-21454819D02*
X8830952Y-20454819D01*
X9640476Y-21454819D02*
X9640476Y-20788152D01*
X9640476Y-20454819D02*
X9592857Y-20502438D01*
X9592857Y-20502438D02*
X9640476Y-20550057D01*
X9640476Y-20550057D02*
X9688095Y-20502438D01*
X9688095Y-20502438D02*
X9640476Y-20454819D01*
X9640476Y-20454819D02*
X9640476Y-20550057D01*
X10116666Y-21454819D02*
X10116666Y-20454819D01*
X10116666Y-20454819D02*
X10497618Y-20454819D01*
X10497618Y-20454819D02*
X10592856Y-20502438D01*
X10592856Y-20502438D02*
X10640475Y-20550057D01*
X10640475Y-20550057D02*
X10688094Y-20645295D01*
X10688094Y-20645295D02*
X10688094Y-20788152D01*
X10688094Y-20788152D02*
X10640475Y-20883390D01*
X10640475Y-20883390D02*
X10592856Y-20931009D01*
X10592856Y-20931009D02*
X10497618Y-20978628D01*
X10497618Y-20978628D02*
X10116666Y-20978628D01*
X11259523Y-21454819D02*
X11164285Y-21407200D01*
X11164285Y-21407200D02*
X11116666Y-21359580D01*
X11116666Y-21359580D02*
X11069047Y-21264342D01*
X11069047Y-21264342D02*
X11069047Y-20978628D01*
X11069047Y-20978628D02*
X11116666Y-20883390D01*
X11116666Y-20883390D02*
X11164285Y-20835771D01*
X11164285Y-20835771D02*
X11259523Y-20788152D01*
X11259523Y-20788152D02*
X11402380Y-20788152D01*
X11402380Y-20788152D02*
X11497618Y-20835771D01*
X11497618Y-20835771D02*
X11545237Y-20883390D01*
X11545237Y-20883390D02*
X11592856Y-20978628D01*
X11592856Y-20978628D02*
X11592856Y-21264342D01*
X11592856Y-21264342D02*
X11545237Y-21359580D01*
X11545237Y-21359580D02*
X11497618Y-21407200D01*
X11497618Y-21407200D02*
X11402380Y-21454819D01*
X11402380Y-21454819D02*
X11259523Y-21454819D01*
X13069047Y-20454819D02*
X13069047Y-21169104D01*
X13069047Y-21169104D02*
X13021428Y-21311961D01*
X13021428Y-21311961D02*
X12926190Y-21407200D01*
X12926190Y-21407200D02*
X12783333Y-21454819D01*
X12783333Y-21454819D02*
X12688095Y-21454819D01*
X13497619Y-21407200D02*
X13640476Y-21454819D01*
X13640476Y-21454819D02*
X13878571Y-21454819D01*
X13878571Y-21454819D02*
X13973809Y-21407200D01*
X13973809Y-21407200D02*
X14021428Y-21359580D01*
X14021428Y-21359580D02*
X14069047Y-21264342D01*
X14069047Y-21264342D02*
X14069047Y-21169104D01*
X14069047Y-21169104D02*
X14021428Y-21073866D01*
X14021428Y-21073866D02*
X13973809Y-21026247D01*
X13973809Y-21026247D02*
X13878571Y-20978628D01*
X13878571Y-20978628D02*
X13688095Y-20931009D01*
X13688095Y-20931009D02*
X13592857Y-20883390D01*
X13592857Y-20883390D02*
X13545238Y-20835771D01*
X13545238Y-20835771D02*
X13497619Y-20740533D01*
X13497619Y-20740533D02*
X13497619Y-20645295D01*
X13497619Y-20645295D02*
X13545238Y-20550057D01*
X13545238Y-20550057D02*
X13592857Y-20502438D01*
X13592857Y-20502438D02*
X13688095Y-20454819D01*
X13688095Y-20454819D02*
X13926190Y-20454819D01*
X13926190Y-20454819D02*
X14069047Y-20502438D01*
X14354762Y-20454819D02*
X14926190Y-20454819D01*
X14640476Y-21454819D02*
X14640476Y-20454819D01*
X16307143Y-21835771D02*
X16259524Y-21788152D01*
X16259524Y-21788152D02*
X16164286Y-21645295D01*
X16164286Y-21645295D02*
X16116667Y-21550057D01*
X16116667Y-21550057D02*
X16069048Y-21407200D01*
X16069048Y-21407200D02*
X16021429Y-21169104D01*
X16021429Y-21169104D02*
X16021429Y-20978628D01*
X16021429Y-20978628D02*
X16069048Y-20740533D01*
X16069048Y-20740533D02*
X16116667Y-20597676D01*
X16116667Y-20597676D02*
X16164286Y-20502438D01*
X16164286Y-20502438D02*
X16259524Y-20359580D01*
X16259524Y-20359580D02*
X16307143Y-20311961D01*
X16688096Y-21454819D02*
X16688096Y-20454819D01*
X16688096Y-20454819D02*
X17069048Y-20454819D01*
X17069048Y-20454819D02*
X17164286Y-20502438D01*
X17164286Y-20502438D02*
X17211905Y-20550057D01*
X17211905Y-20550057D02*
X17259524Y-20645295D01*
X17259524Y-20645295D02*
X17259524Y-20788152D01*
X17259524Y-20788152D02*
X17211905Y-20883390D01*
X17211905Y-20883390D02*
X17164286Y-20931009D01*
X17164286Y-20931009D02*
X17069048Y-20978628D01*
X17069048Y-20978628D02*
X16688096Y-20978628D01*
X17688096Y-21454819D02*
X17688096Y-20454819D01*
X17688096Y-20931009D02*
X18259524Y-20931009D01*
X18259524Y-21454819D02*
X18259524Y-20454819D01*
X19450001Y-20550057D02*
X19497620Y-20502438D01*
X19497620Y-20502438D02*
X19592858Y-20454819D01*
X19592858Y-20454819D02*
X19830953Y-20454819D01*
X19830953Y-20454819D02*
X19926191Y-20502438D01*
X19926191Y-20502438D02*
X19973810Y-20550057D01*
X19973810Y-20550057D02*
X20021429Y-20645295D01*
X20021429Y-20645295D02*
X20021429Y-20740533D01*
X20021429Y-20740533D02*
X19973810Y-20883390D01*
X19973810Y-20883390D02*
X19402382Y-21454819D01*
X19402382Y-21454819D02*
X20021429Y-21454819D01*
X20450001Y-21359580D02*
X20497620Y-21407200D01*
X20497620Y-21407200D02*
X20450001Y-21454819D01*
X20450001Y-21454819D02*
X20402382Y-21407200D01*
X20402382Y-21407200D02*
X20450001Y-21359580D01*
X20450001Y-21359580D02*
X20450001Y-21454819D01*
X21116667Y-20454819D02*
X21211905Y-20454819D01*
X21211905Y-20454819D02*
X21307143Y-20502438D01*
X21307143Y-20502438D02*
X21354762Y-20550057D01*
X21354762Y-20550057D02*
X21402381Y-20645295D01*
X21402381Y-20645295D02*
X21450000Y-20835771D01*
X21450000Y-20835771D02*
X21450000Y-21073866D01*
X21450000Y-21073866D02*
X21402381Y-21264342D01*
X21402381Y-21264342D02*
X21354762Y-21359580D01*
X21354762Y-21359580D02*
X21307143Y-21407200D01*
X21307143Y-21407200D02*
X21211905Y-21454819D01*
X21211905Y-21454819D02*
X21116667Y-21454819D01*
X21116667Y-21454819D02*
X21021429Y-21407200D01*
X21021429Y-21407200D02*
X20973810Y-21359580D01*
X20973810Y-21359580D02*
X20926191Y-21264342D01*
X20926191Y-21264342D02*
X20878572Y-21073866D01*
X20878572Y-21073866D02*
X20878572Y-20835771D01*
X20878572Y-20835771D02*
X20926191Y-20645295D01*
X20926191Y-20645295D02*
X20973810Y-20550057D01*
X20973810Y-20550057D02*
X21021429Y-20502438D01*
X21021429Y-20502438D02*
X21116667Y-20454819D01*
X21783334Y-21835771D02*
X21830953Y-21788152D01*
X21830953Y-21788152D02*
X21926191Y-21645295D01*
X21926191Y-21645295D02*
X21973810Y-21550057D01*
X21973810Y-21550057D02*
X22021429Y-21407200D01*
X22021429Y-21407200D02*
X22069048Y-21169104D01*
X22069048Y-21169104D02*
X22069048Y-20978628D01*
X22069048Y-20978628D02*
X22021429Y-20740533D01*
X22021429Y-20740533D02*
X21973810Y-20597676D01*
X21973810Y-20597676D02*
X21926191Y-20502438D01*
X21926191Y-20502438D02*
X21830953Y-20359580D01*
X21830953Y-20359580D02*
X21783334Y-20311961D01*
X10166666Y-20454819D02*
X10166666Y-21169104D01*
X10166666Y-21169104D02*
X10119047Y-21311961D01*
X10119047Y-21311961D02*
X10023809Y-21407200D01*
X10023809Y-21407200D02*
X9880952Y-21454819D01*
X9880952Y-21454819D02*
X9785714Y-21454819D01*
X10595238Y-20550057D02*
X10642857Y-20502438D01*
X10642857Y-20502438D02*
X10738095Y-20454819D01*
X10738095Y-20454819D02*
X10976190Y-20454819D01*
X10976190Y-20454819D02*
X11071428Y-20502438D01*
X11071428Y-20502438D02*
X11119047Y-20550057D01*
X11119047Y-20550057D02*
X11166666Y-20645295D01*
X11166666Y-20645295D02*
X11166666Y-20740533D01*
X11166666Y-20740533D02*
X11119047Y-20883390D01*
X11119047Y-20883390D02*
X10547619Y-21454819D01*
X10547619Y-21454819D02*
X11166666Y-21454819D01*
X1476191Y-11954819D02*
X1476191Y-10954819D01*
X1476191Y-10954819D02*
X1809524Y-11669104D01*
X1809524Y-11669104D02*
X2142857Y-10954819D01*
X2142857Y-10954819D02*
X2142857Y-11954819D01*
X2571429Y-11050057D02*
X2619048Y-11002438D01*
X2619048Y-11002438D02*
X2714286Y-10954819D01*
X2714286Y-10954819D02*
X2952381Y-10954819D01*
X2952381Y-10954819D02*
X3047619Y-11002438D01*
X3047619Y-11002438D02*
X3095238Y-11050057D01*
X3095238Y-11050057D02*
X3142857Y-11145295D01*
X3142857Y-11145295D02*
X3142857Y-11240533D01*
X3142857Y-11240533D02*
X3095238Y-11383390D01*
X3095238Y-11383390D02*
X2523810Y-11954819D01*
X2523810Y-11954819D02*
X3142857Y-11954819D01*
X3571429Y-11859580D02*
X3619048Y-11907200D01*
X3619048Y-11907200D02*
X3571429Y-11954819D01*
X3571429Y-11954819D02*
X3523810Y-11907200D01*
X3523810Y-11907200D02*
X3571429Y-11859580D01*
X3571429Y-11859580D02*
X3571429Y-11954819D01*
X4523809Y-10954819D02*
X4047619Y-10954819D01*
X4047619Y-10954819D02*
X4000000Y-11431009D01*
X4000000Y-11431009D02*
X4047619Y-11383390D01*
X4047619Y-11383390D02*
X4142857Y-11335771D01*
X4142857Y-11335771D02*
X4380952Y-11335771D01*
X4380952Y-11335771D02*
X4476190Y-11383390D01*
X4476190Y-11383390D02*
X4523809Y-11431009D01*
X4523809Y-11431009D02*
X4571428Y-11526247D01*
X4571428Y-11526247D02*
X4571428Y-11764342D01*
X4571428Y-11764342D02*
X4523809Y-11859580D01*
X4523809Y-11859580D02*
X4476190Y-11907200D01*
X4476190Y-11907200D02*
X4380952Y-11954819D01*
X4380952Y-11954819D02*
X4142857Y-11954819D01*
X4142857Y-11954819D02*
X4047619Y-11907200D01*
X4047619Y-11907200D02*
X4000000Y-11859580D01*
X55476191Y-40954819D02*
X55476191Y-39954819D01*
X55476191Y-39954819D02*
X55809524Y-40669104D01*
X55809524Y-40669104D02*
X56142857Y-39954819D01*
X56142857Y-39954819D02*
X56142857Y-40954819D01*
X56571429Y-40050057D02*
X56619048Y-40002438D01*
X56619048Y-40002438D02*
X56714286Y-39954819D01*
X56714286Y-39954819D02*
X56952381Y-39954819D01*
X56952381Y-39954819D02*
X57047619Y-40002438D01*
X57047619Y-40002438D02*
X57095238Y-40050057D01*
X57095238Y-40050057D02*
X57142857Y-40145295D01*
X57142857Y-40145295D02*
X57142857Y-40240533D01*
X57142857Y-40240533D02*
X57095238Y-40383390D01*
X57095238Y-40383390D02*
X56523810Y-40954819D01*
X56523810Y-40954819D02*
X57142857Y-40954819D01*
X57571429Y-40859580D02*
X57619048Y-40907200D01*
X57619048Y-40907200D02*
X57571429Y-40954819D01*
X57571429Y-40954819D02*
X57523810Y-40907200D01*
X57523810Y-40907200D02*
X57571429Y-40859580D01*
X57571429Y-40859580D02*
X57571429Y-40954819D01*
X58523809Y-39954819D02*
X58047619Y-39954819D01*
X58047619Y-39954819D02*
X58000000Y-40431009D01*
X58000000Y-40431009D02*
X58047619Y-40383390D01*
X58047619Y-40383390D02*
X58142857Y-40335771D01*
X58142857Y-40335771D02*
X58380952Y-40335771D01*
X58380952Y-40335771D02*
X58476190Y-40383390D01*
X58476190Y-40383390D02*
X58523809Y-40431009D01*
X58523809Y-40431009D02*
X58571428Y-40526247D01*
X58571428Y-40526247D02*
X58571428Y-40764342D01*
X58571428Y-40764342D02*
X58523809Y-40859580D01*
X58523809Y-40859580D02*
X58476190Y-40907200D01*
X58476190Y-40907200D02*
X58380952Y-40954819D01*
X58380952Y-40954819D02*
X58142857Y-40954819D01*
X58142857Y-40954819D02*
X58047619Y-40907200D01*
X58047619Y-40907200D02*
X58000000Y-40859580D01*
X3785714Y-10761009D02*
X3928571Y-10808628D01*
X3928571Y-10808628D02*
X3976190Y-10856247D01*
X3976190Y-10856247D02*
X4023809Y-10951485D01*
X4023809Y-10951485D02*
X4023809Y-11094342D01*
X4023809Y-11094342D02*
X3976190Y-11189580D01*
X3976190Y-11189580D02*
X3928571Y-11237200D01*
X3928571Y-11237200D02*
X3833333Y-11284819D01*
X3833333Y-11284819D02*
X3452381Y-11284819D01*
X3452381Y-11284819D02*
X3452381Y-10284819D01*
X3452381Y-10284819D02*
X3785714Y-10284819D01*
X3785714Y-10284819D02*
X3880952Y-10332438D01*
X3880952Y-10332438D02*
X3928571Y-10380057D01*
X3928571Y-10380057D02*
X3976190Y-10475295D01*
X3976190Y-10475295D02*
X3976190Y-10570533D01*
X3976190Y-10570533D02*
X3928571Y-10665771D01*
X3928571Y-10665771D02*
X3880952Y-10713390D01*
X3880952Y-10713390D02*
X3785714Y-10761009D01*
X3785714Y-10761009D02*
X3452381Y-10761009D01*
X5119047Y-11380057D02*
X5023809Y-11332438D01*
X5023809Y-11332438D02*
X4928571Y-11237200D01*
X4928571Y-11237200D02*
X4785714Y-11094342D01*
X4785714Y-11094342D02*
X4690476Y-11046723D01*
X4690476Y-11046723D02*
X4595238Y-11046723D01*
X4642857Y-11284819D02*
X4547619Y-11237200D01*
X4547619Y-11237200D02*
X4452381Y-11141961D01*
X4452381Y-11141961D02*
X4404762Y-10951485D01*
X4404762Y-10951485D02*
X4404762Y-10618152D01*
X4404762Y-10618152D02*
X4452381Y-10427676D01*
X4452381Y-10427676D02*
X4547619Y-10332438D01*
X4547619Y-10332438D02*
X4642857Y-10284819D01*
X4642857Y-10284819D02*
X4833333Y-10284819D01*
X4833333Y-10284819D02*
X4928571Y-10332438D01*
X4928571Y-10332438D02*
X5023809Y-10427676D01*
X5023809Y-10427676D02*
X5071428Y-10618152D01*
X5071428Y-10618152D02*
X5071428Y-10951485D01*
X5071428Y-10951485D02*
X5023809Y-11141961D01*
X5023809Y-11141961D02*
X4928571Y-11237200D01*
X4928571Y-11237200D02*
X4833333Y-11284819D01*
X4833333Y-11284819D02*
X4642857Y-11284819D01*
X5452381Y-10380057D02*
X5500000Y-10332438D01*
X5500000Y-10332438D02*
X5595238Y-10284819D01*
X5595238Y-10284819D02*
X5833333Y-10284819D01*
X5833333Y-10284819D02*
X5928571Y-10332438D01*
X5928571Y-10332438D02*
X5976190Y-10380057D01*
X5976190Y-10380057D02*
X6023809Y-10475295D01*
X6023809Y-10475295D02*
X6023809Y-10570533D01*
X6023809Y-10570533D02*
X5976190Y-10713390D01*
X5976190Y-10713390D02*
X5404762Y-11284819D01*
X5404762Y-11284819D02*
X6023809Y-11284819D01*
X6880952Y-10618152D02*
X6880952Y-11284819D01*
X6642857Y-10237200D02*
X6404762Y-10951485D01*
X6404762Y-10951485D02*
X7023809Y-10951485D01*
X7595238Y-10284819D02*
X7690476Y-10284819D01*
X7690476Y-10284819D02*
X7785714Y-10332438D01*
X7785714Y-10332438D02*
X7833333Y-10380057D01*
X7833333Y-10380057D02*
X7880952Y-10475295D01*
X7880952Y-10475295D02*
X7928571Y-10665771D01*
X7928571Y-10665771D02*
X7928571Y-10903866D01*
X7928571Y-10903866D02*
X7880952Y-11094342D01*
X7880952Y-11094342D02*
X7833333Y-11189580D01*
X7833333Y-11189580D02*
X7785714Y-11237200D01*
X7785714Y-11237200D02*
X7690476Y-11284819D01*
X7690476Y-11284819D02*
X7595238Y-11284819D01*
X7595238Y-11284819D02*
X7500000Y-11237200D01*
X7500000Y-11237200D02*
X7452381Y-11189580D01*
X7452381Y-11189580D02*
X7404762Y-11094342D01*
X7404762Y-11094342D02*
X7357143Y-10903866D01*
X7357143Y-10903866D02*
X7357143Y-10665771D01*
X7357143Y-10665771D02*
X7404762Y-10475295D01*
X7404762Y-10475295D02*
X7452381Y-10380057D01*
X7452381Y-10380057D02*
X7500000Y-10332438D01*
X7500000Y-10332438D02*
X7595238Y-10284819D01*
X8261905Y-10284819D02*
X8928571Y-10284819D01*
X8928571Y-10284819D02*
X8500000Y-11284819D01*
X9738095Y-10618152D02*
X9738095Y-11284819D01*
X9500000Y-10237200D02*
X9261905Y-10951485D01*
X9261905Y-10951485D02*
X9880952Y-10951485D01*
X10833333Y-11284819D02*
X10500000Y-10808628D01*
X10261905Y-11284819D02*
X10261905Y-10284819D01*
X10261905Y-10284819D02*
X10642857Y-10284819D01*
X10642857Y-10284819D02*
X10738095Y-10332438D01*
X10738095Y-10332438D02*
X10785714Y-10380057D01*
X10785714Y-10380057D02*
X10833333Y-10475295D01*
X10833333Y-10475295D02*
X10833333Y-10618152D01*
X10833333Y-10618152D02*
X10785714Y-10713390D01*
X10785714Y-10713390D02*
X10738095Y-10761009D01*
X10738095Y-10761009D02*
X10642857Y-10808628D01*
X10642857Y-10808628D02*
X10261905Y-10808628D01*
X11785714Y-10332438D02*
X11690476Y-10284819D01*
X11690476Y-10284819D02*
X11547619Y-10284819D01*
X11547619Y-10284819D02*
X11404762Y-10332438D01*
X11404762Y-10332438D02*
X11309524Y-10427676D01*
X11309524Y-10427676D02*
X11261905Y-10522914D01*
X11261905Y-10522914D02*
X11214286Y-10713390D01*
X11214286Y-10713390D02*
X11214286Y-10856247D01*
X11214286Y-10856247D02*
X11261905Y-11046723D01*
X11261905Y-11046723D02*
X11309524Y-11141961D01*
X11309524Y-11141961D02*
X11404762Y-11237200D01*
X11404762Y-11237200D02*
X11547619Y-11284819D01*
X11547619Y-11284819D02*
X11642857Y-11284819D01*
X11642857Y-11284819D02*
X11785714Y-11237200D01*
X11785714Y-11237200D02*
X11833333Y-11189580D01*
X11833333Y-11189580D02*
X11833333Y-10856247D01*
X11833333Y-10856247D02*
X11642857Y-10856247D01*
X12119048Y-10284819D02*
X12690476Y-10284819D01*
X12404762Y-11284819D02*
X12404762Y-10284819D01*
D13*
X7428571Y-7591244D02*
X7428571Y-8198387D01*
X7428571Y-8198387D02*
X7464285Y-8269815D01*
X7464285Y-8269815D02*
X7500000Y-8305530D01*
X7500000Y-8305530D02*
X7571428Y-8341244D01*
X7571428Y-8341244D02*
X7714285Y-8341244D01*
X7714285Y-8341244D02*
X7785714Y-8305530D01*
X7785714Y-8305530D02*
X7821428Y-8269815D01*
X7821428Y-8269815D02*
X7857142Y-8198387D01*
X7857142Y-8198387D02*
X7857142Y-7591244D01*
X8607142Y-8341244D02*
X8178571Y-8341244D01*
X8392856Y-8341244D02*
X8392856Y-7591244D01*
X8392856Y-7591244D02*
X8321428Y-7698387D01*
X8321428Y-7698387D02*
X8249999Y-7769815D01*
X8249999Y-7769815D02*
X8178571Y-7805530D01*
D11*
X15689285Y-16379819D02*
X15689285Y-17189342D01*
X15689285Y-17189342D02*
X15736904Y-17284580D01*
X15736904Y-17284580D02*
X15784523Y-17332200D01*
X15784523Y-17332200D02*
X15879761Y-17379819D01*
X15879761Y-17379819D02*
X16070237Y-17379819D01*
X16070237Y-17379819D02*
X16165475Y-17332200D01*
X16165475Y-17332200D02*
X16213094Y-17284580D01*
X16213094Y-17284580D02*
X16260713Y-17189342D01*
X16260713Y-17189342D02*
X16260713Y-16379819D01*
X16689285Y-17332200D02*
X16832142Y-17379819D01*
X16832142Y-17379819D02*
X17070237Y-17379819D01*
X17070237Y-17379819D02*
X17165475Y-17332200D01*
X17165475Y-17332200D02*
X17213094Y-17284580D01*
X17213094Y-17284580D02*
X17260713Y-17189342D01*
X17260713Y-17189342D02*
X17260713Y-17094104D01*
X17260713Y-17094104D02*
X17213094Y-16998866D01*
X17213094Y-16998866D02*
X17165475Y-16951247D01*
X17165475Y-16951247D02*
X17070237Y-16903628D01*
X17070237Y-16903628D02*
X16879761Y-16856009D01*
X16879761Y-16856009D02*
X16784523Y-16808390D01*
X16784523Y-16808390D02*
X16736904Y-16760771D01*
X16736904Y-16760771D02*
X16689285Y-16665533D01*
X16689285Y-16665533D02*
X16689285Y-16570295D01*
X16689285Y-16570295D02*
X16736904Y-16475057D01*
X16736904Y-16475057D02*
X16784523Y-16427438D01*
X16784523Y-16427438D02*
X16879761Y-16379819D01*
X16879761Y-16379819D02*
X17117856Y-16379819D01*
X17117856Y-16379819D02*
X17260713Y-16427438D01*
X18022618Y-16856009D02*
X18165475Y-16903628D01*
X18165475Y-16903628D02*
X18213094Y-16951247D01*
X18213094Y-16951247D02*
X18260713Y-17046485D01*
X18260713Y-17046485D02*
X18260713Y-17189342D01*
X18260713Y-17189342D02*
X18213094Y-17284580D01*
X18213094Y-17284580D02*
X18165475Y-17332200D01*
X18165475Y-17332200D02*
X18070237Y-17379819D01*
X18070237Y-17379819D02*
X17689285Y-17379819D01*
X17689285Y-17379819D02*
X17689285Y-16379819D01*
X17689285Y-16379819D02*
X18022618Y-16379819D01*
X18022618Y-16379819D02*
X18117856Y-16427438D01*
X18117856Y-16427438D02*
X18165475Y-16475057D01*
X18165475Y-16475057D02*
X18213094Y-16570295D01*
X18213094Y-16570295D02*
X18213094Y-16665533D01*
X18213094Y-16665533D02*
X18165475Y-16760771D01*
X18165475Y-16760771D02*
X18117856Y-16808390D01*
X18117856Y-16808390D02*
X18022618Y-16856009D01*
X18022618Y-16856009D02*
X17689285Y-16856009D01*
X18689285Y-16998866D02*
X19451190Y-16998866D01*
X20498808Y-17284580D02*
X20451189Y-17332200D01*
X20451189Y-17332200D02*
X20308332Y-17379819D01*
X20308332Y-17379819D02*
X20213094Y-17379819D01*
X20213094Y-17379819D02*
X20070237Y-17332200D01*
X20070237Y-17332200D02*
X19974999Y-17236961D01*
X19974999Y-17236961D02*
X19927380Y-17141723D01*
X19927380Y-17141723D02*
X19879761Y-16951247D01*
X19879761Y-16951247D02*
X19879761Y-16808390D01*
X19879761Y-16808390D02*
X19927380Y-16617914D01*
X19927380Y-16617914D02*
X19974999Y-16522676D01*
X19974999Y-16522676D02*
X20070237Y-16427438D01*
X20070237Y-16427438D02*
X20213094Y-16379819D01*
X20213094Y-16379819D02*
X20308332Y-16379819D01*
X20308332Y-16379819D02*
X20451189Y-16427438D01*
X20451189Y-16427438D02*
X20498808Y-16475057D01*
X21689285Y-17379819D02*
X21689285Y-16379819D01*
X21689285Y-16379819D02*
X22070237Y-16379819D01*
X22070237Y-16379819D02*
X22165475Y-16427438D01*
X22165475Y-16427438D02*
X22213094Y-16475057D01*
X22213094Y-16475057D02*
X22260713Y-16570295D01*
X22260713Y-16570295D02*
X22260713Y-16713152D01*
X22260713Y-16713152D02*
X22213094Y-16808390D01*
X22213094Y-16808390D02*
X22165475Y-16856009D01*
X22165475Y-16856009D02*
X22070237Y-16903628D01*
X22070237Y-16903628D02*
X21689285Y-16903628D01*
X22832142Y-17379819D02*
X22736904Y-17332200D01*
X22736904Y-17332200D02*
X22689285Y-17284580D01*
X22689285Y-17284580D02*
X22641666Y-17189342D01*
X22641666Y-17189342D02*
X22641666Y-16903628D01*
X22641666Y-16903628D02*
X22689285Y-16808390D01*
X22689285Y-16808390D02*
X22736904Y-16760771D01*
X22736904Y-16760771D02*
X22832142Y-16713152D01*
X22832142Y-16713152D02*
X22974999Y-16713152D01*
X22974999Y-16713152D02*
X23070237Y-16760771D01*
X23070237Y-16760771D02*
X23117856Y-16808390D01*
X23117856Y-16808390D02*
X23165475Y-16903628D01*
X23165475Y-16903628D02*
X23165475Y-17189342D01*
X23165475Y-17189342D02*
X23117856Y-17284580D01*
X23117856Y-17284580D02*
X23070237Y-17332200D01*
X23070237Y-17332200D02*
X22974999Y-17379819D01*
X22974999Y-17379819D02*
X22832142Y-17379819D01*
X23498809Y-16713152D02*
X23689285Y-17379819D01*
X23689285Y-17379819D02*
X23879761Y-16903628D01*
X23879761Y-16903628D02*
X24070237Y-17379819D01*
X24070237Y-17379819D02*
X24260713Y-16713152D01*
X25022618Y-17332200D02*
X24927380Y-17379819D01*
X24927380Y-17379819D02*
X24736904Y-17379819D01*
X24736904Y-17379819D02*
X24641666Y-17332200D01*
X24641666Y-17332200D02*
X24594047Y-17236961D01*
X24594047Y-17236961D02*
X24594047Y-16856009D01*
X24594047Y-16856009D02*
X24641666Y-16760771D01*
X24641666Y-16760771D02*
X24736904Y-16713152D01*
X24736904Y-16713152D02*
X24927380Y-16713152D01*
X24927380Y-16713152D02*
X25022618Y-16760771D01*
X25022618Y-16760771D02*
X25070237Y-16856009D01*
X25070237Y-16856009D02*
X25070237Y-16951247D01*
X25070237Y-16951247D02*
X24594047Y-17046485D01*
X25498809Y-17379819D02*
X25498809Y-16713152D01*
X25498809Y-16903628D02*
X25546428Y-16808390D01*
X25546428Y-16808390D02*
X25594047Y-16760771D01*
X25594047Y-16760771D02*
X25689285Y-16713152D01*
X25689285Y-16713152D02*
X25784523Y-16713152D01*
X26117857Y-16998866D02*
X26879762Y-16998866D01*
X26498809Y-17379819D02*
X26498809Y-16617914D01*
X27355952Y-17379819D02*
X27355952Y-16379819D01*
X27355952Y-16379819D02*
X27594047Y-16379819D01*
X27594047Y-16379819D02*
X27736904Y-16427438D01*
X27736904Y-16427438D02*
X27832142Y-16522676D01*
X27832142Y-16522676D02*
X27879761Y-16617914D01*
X27879761Y-16617914D02*
X27927380Y-16808390D01*
X27927380Y-16808390D02*
X27927380Y-16951247D01*
X27927380Y-16951247D02*
X27879761Y-17141723D01*
X27879761Y-17141723D02*
X27832142Y-17236961D01*
X27832142Y-17236961D02*
X27736904Y-17332200D01*
X27736904Y-17332200D02*
X27594047Y-17379819D01*
X27594047Y-17379819D02*
X27355952Y-17379819D01*
X28784523Y-17379819D02*
X28784523Y-16856009D01*
X28784523Y-16856009D02*
X28736904Y-16760771D01*
X28736904Y-16760771D02*
X28641666Y-16713152D01*
X28641666Y-16713152D02*
X28451190Y-16713152D01*
X28451190Y-16713152D02*
X28355952Y-16760771D01*
X28784523Y-17332200D02*
X28689285Y-17379819D01*
X28689285Y-17379819D02*
X28451190Y-17379819D01*
X28451190Y-17379819D02*
X28355952Y-17332200D01*
X28355952Y-17332200D02*
X28308333Y-17236961D01*
X28308333Y-17236961D02*
X28308333Y-17141723D01*
X28308333Y-17141723D02*
X28355952Y-17046485D01*
X28355952Y-17046485D02*
X28451190Y-16998866D01*
X28451190Y-16998866D02*
X28689285Y-16998866D01*
X28689285Y-16998866D02*
X28784523Y-16951247D01*
X29117857Y-16713152D02*
X29498809Y-16713152D01*
X29260714Y-16379819D02*
X29260714Y-17236961D01*
X29260714Y-17236961D02*
X29308333Y-17332200D01*
X29308333Y-17332200D02*
X29403571Y-17379819D01*
X29403571Y-17379819D02*
X29498809Y-17379819D01*
X30260714Y-17379819D02*
X30260714Y-16856009D01*
X30260714Y-16856009D02*
X30213095Y-16760771D01*
X30213095Y-16760771D02*
X30117857Y-16713152D01*
X30117857Y-16713152D02*
X29927381Y-16713152D01*
X29927381Y-16713152D02*
X29832143Y-16760771D01*
X30260714Y-17332200D02*
X30165476Y-17379819D01*
X30165476Y-17379819D02*
X29927381Y-17379819D01*
X29927381Y-17379819D02*
X29832143Y-17332200D01*
X29832143Y-17332200D02*
X29784524Y-17236961D01*
X29784524Y-17236961D02*
X29784524Y-17141723D01*
X29784524Y-17141723D02*
X29832143Y-17046485D01*
X29832143Y-17046485D02*
X29927381Y-16998866D01*
X29927381Y-16998866D02*
X30165476Y-16998866D01*
X30165476Y-16998866D02*
X30260714Y-16951247D01*
X22641666Y-10479819D02*
X22641666Y-11194104D01*
X22641666Y-11194104D02*
X22594047Y-11336961D01*
X22594047Y-11336961D02*
X22498809Y-11432200D01*
X22498809Y-11432200D02*
X22355952Y-11479819D01*
X22355952Y-11479819D02*
X22260714Y-11479819D01*
X23641666Y-11479819D02*
X23070238Y-11479819D01*
X23355952Y-11479819D02*
X23355952Y-10479819D01*
X23355952Y-10479819D02*
X23260714Y-10622676D01*
X23260714Y-10622676D02*
X23165476Y-10717914D01*
X23165476Y-10717914D02*
X23070238Y-10765533D01*
X47634047Y-37466009D02*
X47776904Y-37513628D01*
X47776904Y-37513628D02*
X47824523Y-37561247D01*
X47824523Y-37561247D02*
X47872142Y-37656485D01*
X47872142Y-37656485D02*
X47872142Y-37799342D01*
X47872142Y-37799342D02*
X47824523Y-37894580D01*
X47824523Y-37894580D02*
X47776904Y-37942200D01*
X47776904Y-37942200D02*
X47681666Y-37989819D01*
X47681666Y-37989819D02*
X47300714Y-37989819D01*
X47300714Y-37989819D02*
X47300714Y-36989819D01*
X47300714Y-36989819D02*
X47634047Y-36989819D01*
X47634047Y-36989819D02*
X47729285Y-37037438D01*
X47729285Y-37037438D02*
X47776904Y-37085057D01*
X47776904Y-37085057D02*
X47824523Y-37180295D01*
X47824523Y-37180295D02*
X47824523Y-37275533D01*
X47824523Y-37275533D02*
X47776904Y-37370771D01*
X47776904Y-37370771D02*
X47729285Y-37418390D01*
X47729285Y-37418390D02*
X47634047Y-37466009D01*
X47634047Y-37466009D02*
X47300714Y-37466009D01*
X48300714Y-37989819D02*
X48300714Y-36989819D01*
X48300714Y-36989819D02*
X48634047Y-37704104D01*
X48634047Y-37704104D02*
X48967380Y-36989819D01*
X48967380Y-36989819D02*
X48967380Y-37989819D01*
X49443571Y-37466009D02*
X49776904Y-37466009D01*
X49919761Y-37989819D02*
X49443571Y-37989819D01*
X49443571Y-37989819D02*
X49443571Y-36989819D01*
X49443571Y-36989819D02*
X49919761Y-36989819D01*
X50300714Y-37085057D02*
X50348333Y-37037438D01*
X50348333Y-37037438D02*
X50443571Y-36989819D01*
X50443571Y-36989819D02*
X50681666Y-36989819D01*
X50681666Y-36989819D02*
X50776904Y-37037438D01*
X50776904Y-37037438D02*
X50824523Y-37085057D01*
X50824523Y-37085057D02*
X50872142Y-37180295D01*
X50872142Y-37180295D02*
X50872142Y-37275533D01*
X50872142Y-37275533D02*
X50824523Y-37418390D01*
X50824523Y-37418390D02*
X50253095Y-37989819D01*
X50253095Y-37989819D02*
X50872142Y-37989819D01*
X51443571Y-37418390D02*
X51348333Y-37370771D01*
X51348333Y-37370771D02*
X51300714Y-37323152D01*
X51300714Y-37323152D02*
X51253095Y-37227914D01*
X51253095Y-37227914D02*
X51253095Y-37180295D01*
X51253095Y-37180295D02*
X51300714Y-37085057D01*
X51300714Y-37085057D02*
X51348333Y-37037438D01*
X51348333Y-37037438D02*
X51443571Y-36989819D01*
X51443571Y-36989819D02*
X51634047Y-36989819D01*
X51634047Y-36989819D02*
X51729285Y-37037438D01*
X51729285Y-37037438D02*
X51776904Y-37085057D01*
X51776904Y-37085057D02*
X51824523Y-37180295D01*
X51824523Y-37180295D02*
X51824523Y-37227914D01*
X51824523Y-37227914D02*
X51776904Y-37323152D01*
X51776904Y-37323152D02*
X51729285Y-37370771D01*
X51729285Y-37370771D02*
X51634047Y-37418390D01*
X51634047Y-37418390D02*
X51443571Y-37418390D01*
X51443571Y-37418390D02*
X51348333Y-37466009D01*
X51348333Y-37466009D02*
X51300714Y-37513628D01*
X51300714Y-37513628D02*
X51253095Y-37608866D01*
X51253095Y-37608866D02*
X51253095Y-37799342D01*
X51253095Y-37799342D02*
X51300714Y-37894580D01*
X51300714Y-37894580D02*
X51348333Y-37942200D01*
X51348333Y-37942200D02*
X51443571Y-37989819D01*
X51443571Y-37989819D02*
X51634047Y-37989819D01*
X51634047Y-37989819D02*
X51729285Y-37942200D01*
X51729285Y-37942200D02*
X51776904Y-37894580D01*
X51776904Y-37894580D02*
X51824523Y-37799342D01*
X51824523Y-37799342D02*
X51824523Y-37608866D01*
X51824523Y-37608866D02*
X51776904Y-37513628D01*
X51776904Y-37513628D02*
X51729285Y-37466009D01*
X51729285Y-37466009D02*
X51634047Y-37418390D01*
X52443571Y-36989819D02*
X52538809Y-36989819D01*
X52538809Y-36989819D02*
X52634047Y-37037438D01*
X52634047Y-37037438D02*
X52681666Y-37085057D01*
X52681666Y-37085057D02*
X52729285Y-37180295D01*
X52729285Y-37180295D02*
X52776904Y-37370771D01*
X52776904Y-37370771D02*
X52776904Y-37608866D01*
X52776904Y-37608866D02*
X52729285Y-37799342D01*
X52729285Y-37799342D02*
X52681666Y-37894580D01*
X52681666Y-37894580D02*
X52634047Y-37942200D01*
X52634047Y-37942200D02*
X52538809Y-37989819D01*
X52538809Y-37989819D02*
X52443571Y-37989819D01*
X52443571Y-37989819D02*
X52348333Y-37942200D01*
X52348333Y-37942200D02*
X52300714Y-37894580D01*
X52300714Y-37894580D02*
X52253095Y-37799342D01*
X52253095Y-37799342D02*
X52205476Y-37608866D01*
X52205476Y-37608866D02*
X52205476Y-37370771D01*
X52205476Y-37370771D02*
X52253095Y-37180295D01*
X52253095Y-37180295D02*
X52300714Y-37085057D01*
X52300714Y-37085057D02*
X52348333Y-37037438D01*
X52348333Y-37037438D02*
X52443571Y-36989819D01*
D14*
X49619047Y-34727409D02*
X49619047Y-35132171D01*
X49619047Y-35132171D02*
X49642857Y-35179790D01*
X49642857Y-35179790D02*
X49666666Y-35203600D01*
X49666666Y-35203600D02*
X49714285Y-35227409D01*
X49714285Y-35227409D02*
X49809523Y-35227409D01*
X49809523Y-35227409D02*
X49857142Y-35203600D01*
X49857142Y-35203600D02*
X49880952Y-35179790D01*
X49880952Y-35179790D02*
X49904761Y-35132171D01*
X49904761Y-35132171D02*
X49904761Y-34727409D01*
X50357143Y-34894076D02*
X50357143Y-35227409D01*
X50238095Y-34703600D02*
X50119048Y-35060742D01*
X50119048Y-35060742D02*
X50428571Y-35060742D01*
%TO.C,U2*%
D15*
X19000000Y-9000000D02*
X36800000Y-9000000D01*
X36800000Y-30000000D01*
X19000000Y-30000000D01*
X19000000Y-9000000D01*
D16*
X20336000Y-10100000D02*
G75*
G02*
X19832000Y-10100000I-252000J0D01*
G01*
X19832000Y-10100000D02*
G75*
G02*
X20336000Y-10100000I252000J0D01*
G01*
%TO.C,J2*%
D15*
X6650000Y-18050000D02*
X6650000Y-18750000D01*
X6650000Y-18750000D02*
X8250000Y-18750000D01*
X6650000Y-23250000D02*
X6650000Y-23950000D01*
X6650000Y-23950000D02*
X14250000Y-23950000D01*
X8250000Y-18750000D02*
X8250000Y-23250000D01*
X8250000Y-23250000D02*
X6650000Y-23250000D01*
X8875000Y-22000000D02*
X9375000Y-22500000D01*
X9375000Y-21500000D02*
X8875000Y-22000000D01*
X9375000Y-22500000D02*
X9375000Y-21500000D01*
X14250000Y-18050000D02*
X6650000Y-18050000D01*
X14250000Y-23950000D02*
X14250000Y-18050000D01*
%TO.C,U1*%
X7250000Y-6500000D02*
X9500000Y-6500000D01*
X9500000Y-9500000D01*
X6500000Y-9500000D01*
X6500000Y-7250000D01*
X7250000Y-6500000D01*
%TO.C,J1*%
X18500000Y-6440000D02*
X18500000Y-15610000D01*
X18500000Y-6440000D02*
X27450000Y-6440000D01*
X18500000Y-15610000D02*
X27450000Y-15610000D01*
X19975000Y-13100000D02*
X25975000Y-13100000D01*
X27450000Y-6440000D02*
X27450000Y-15610000D01*
%TO.C,U4*%
X48750000Y-34500000D02*
X49500000Y-33750000D01*
X48750000Y-36250000D02*
X48750000Y-34500000D01*
X49500000Y-33750000D02*
X51250000Y-33750000D01*
X51250000Y-33750000D02*
X51250000Y-36250000D01*
X51250000Y-36250000D02*
X48750000Y-36250000D01*
%TD*%
M02*
