%TF.GenerationSoftware,KiCad,Pcbnew,10.0.3*%
%TF.CreationDate,2026-06-01T07:00:27-05:00*%
%TF.ProjectId,chameleon_mesh_node_v1,6368616d-656c-4656-9f6e-5f6d6573685f,v1.1*%
%TF.SameCoordinates,Original*%
%TF.FileFunction,Copper,L2,Bot*%
%TF.FilePolarity,Positive*%
%FSLAX46Y46*%
G04 Gerber Fmt 4.6, Leading zero omitted, Abs format (unit mm)*
G04 Created by KiCad (PCBNEW 10.0.3) date 2026-06-01 07:00:27*
%MOMM*%
%LPD*%
G01*
G04 APERTURE LIST*
G04 Aperture macros list*
%AMRoundRect*
0 Rectangle with rounded corners*
0 $1 Rounding radius*
0 $2 $3 $4 $5 $6 $7 $8 $9 X,Y pos of 4 corners*
0 Add a 4 corners polygon primitive as box body*
4,1,4,$2,$3,$4,$5,$6,$7,$8,$9,$2,$3,0*
0 Add four circle primitives for the rounded corners*
1,1,$1+$1,$2,$3*
1,1,$1+$1,$4,$5*
1,1,$1+$1,$6,$7*
1,1,$1+$1,$8,$9*
0 Add four rect primitives between the rounded corners*
20,1,$1+$1,$2,$3,$4,$5,0*
20,1,$1+$1,$4,$5,$6,$7,0*
20,1,$1+$1,$6,$7,$8,$9,0*
20,1,$1+$1,$8,$9,$2,$3,0*%
G04 Aperture macros list end*
%TA.AperFunction,ComponentPad*%
%ADD10C,5.500000*%
%TD*%
%TA.AperFunction,ComponentPad*%
%ADD11RoundRect,0.250000X-0.350000X-0.625000X0.350000X-0.625000X0.350000X0.625000X-0.350000X0.625000X0*%
%TD*%
%TA.AperFunction,ComponentPad*%
%ADD12O,1.200000X1.750000*%
%TD*%
%TA.AperFunction,ComponentPad*%
%ADD13C,0.700000*%
%TD*%
%TA.AperFunction,ComponentPad*%
%ADD14O,0.900000X2.400000*%
%TD*%
%TA.AperFunction,ComponentPad*%
%ADD15O,0.900000X1.700000*%
%TD*%
%TA.AperFunction,ViaPad*%
%ADD16C,0.600000*%
%TD*%
%TA.AperFunction,Conductor*%
%ADD17C,0.250000*%
%TD*%
G04 APERTURE END LIST*
D10*
%TO.P,H3,*%
%TO.N,*%
X3000000Y-37000000D03*
%TD*%
%TO.P,H2,*%
%TO.N,*%
X57000000Y-8000000D03*
%TD*%
D11*
%TO.P,J2,1*%
%TO.N,VBAT*%
X8000000Y-22000000D03*
D12*
%TO.P,J2,2*%
%TO.N,GND*%
X8000000Y-20000000D03*
%TD*%
D10*
%TO.P,H1,*%
%TO.N,*%
X3000000Y-8000000D03*
%TD*%
%TO.P,H4,*%
%TO.N,*%
X57000000Y-37000000D03*
%TD*%
D13*
%TO.P,J1,A1*%
%TO.N,GND*%
X20000000Y-7000000D03*
%TO.P,J1,A4*%
%TO.N,VBUS*%
X20850000Y-7000000D03*
%TO.P,J1,A5*%
%TO.N,CC1*%
X21700000Y-7000000D03*
%TO.P,J1,A6*%
%TO.N,N/C*%
X22550000Y-7000000D03*
%TO.P,J1,A7*%
X23400000Y-7000000D03*
%TO.P,J1,A8*%
X24250000Y-7000000D03*
%TO.P,J1,A9*%
%TO.N,VBUS*%
X25100000Y-7000000D03*
%TO.P,J1,A12*%
%TO.N,GND*%
X25950000Y-7000000D03*
%TO.P,J1,B1*%
X25950000Y-8350000D03*
%TO.P,J1,B4*%
%TO.N,VBUS*%
X25100000Y-8350000D03*
%TO.P,J1,B5*%
%TO.N,CC2*%
X24250000Y-8350000D03*
%TO.P,J1,B6*%
%TO.N,N/C*%
X23400000Y-8350000D03*
%TO.P,J1,B7*%
X22550000Y-8350000D03*
%TO.P,J1,B8*%
X21700000Y-8350000D03*
%TO.P,J1,B9*%
%TO.N,VBUS*%
X20850000Y-8350000D03*
%TO.P,J1,B12*%
%TO.N,GND*%
X20000000Y-8350000D03*
D14*
%TO.P,J1,SH*%
X18650000Y-7980000D03*
D15*
X18650000Y-11360000D03*
D14*
X27300000Y-7980000D03*
D15*
X27300000Y-11360000D03*
%TD*%
D16*
%TO.N,I2C_SCL*%
X50811500Y-33217800D03*
X48511200Y-27850000D03*
X29144000Y-28037000D03*
%TO.N,I2C_SDA*%
X50184800Y-32552900D03*
X47200600Y-29406100D03*
%TO.N,+3V3*%
X43787400Y-32387100D03*
X32867100Y-15692200D03*
%TO.N,UART_BRIDGE_RX*%
X37998600Y-27232700D03*
X52934000Y-32397600D03*
%TD*%
%TO.N,GND*%
D17*
X20000000Y-8350000D02*
X20000000Y-7000000D01*
X27300000Y-11360000D02*
X27300000Y-10183300D01*
X27226900Y-8350000D02*
X27226900Y-10110200D01*
X27226900Y-8350000D02*
X25950000Y-8350000D01*
X27226900Y-10110200D02*
X27300000Y-10183300D01*
X18650000Y-11360000D02*
X18650000Y-12536700D01*
X27300000Y-7980000D02*
X27226900Y-8053100D01*
X18650000Y-11360000D02*
X18650000Y-7980000D01*
X11186700Y-20000000D02*
X18650000Y-12536700D01*
X27226900Y-8053100D02*
X27226900Y-8350000D01*
X8000000Y-20000000D02*
X11186700Y-20000000D01*
X25950000Y-8350000D02*
X25950000Y-7000000D01*
%TO.N,I2C_SCL*%
X42644400Y-32136800D02*
X42644400Y-30983600D01*
X38201900Y-26541100D02*
X30639900Y-26541100D01*
X43972200Y-33464600D02*
X42644400Y-32136800D01*
X44527900Y-33012300D02*
X44075600Y-33464600D01*
X50811500Y-33217800D02*
X50811500Y-30150300D01*
X30639900Y-26541100D02*
X29144000Y-28037000D01*
X48511200Y-27850000D02*
X47785200Y-27850000D01*
X44527900Y-31107300D02*
X44527900Y-33012300D01*
X47785200Y-27850000D02*
X44527900Y-31107300D01*
X50811500Y-30150300D02*
X48511200Y-27850000D01*
X42644400Y-30983600D02*
X38201900Y-26541100D01*
X44075600Y-33464600D02*
X43972200Y-33464600D01*
%TO.N,I2C_SDA*%
X47200600Y-29568700D02*
X47200600Y-29406100D01*
X50184800Y-32552900D02*
X47200600Y-29568700D01*
%TO.N,+3V3*%
X43787400Y-26612500D02*
X32867100Y-15692200D01*
X43787400Y-32387100D02*
X43787400Y-26612500D01*
%TO.N,UART_BRIDGE_RX*%
X43786700Y-33917900D02*
X51413700Y-33917900D01*
X37998600Y-28129800D02*
X43786700Y-33917900D01*
X37998600Y-27232700D02*
X37998600Y-28129800D01*
X51413700Y-33917900D02*
X52934000Y-32397600D01*
%TO.N,VBUS*%
X20850000Y-8350000D02*
X20850000Y-7000000D01*
X25100000Y-8350000D02*
X25100000Y-7000000D01*
%TD*%
%TA.AperFunction,Conductor*%
%TO.N,GND*%
G36*
X55961023Y-5255010D02*
G01*
X55975613Y-5254683D01*
X55989389Y-5264226D01*
X56005332Y-5269407D01*
X56013911Y-5281216D01*
X56025908Y-5289527D01*
X56031443Y-5305345D01*
X56041296Y-5318907D01*
X56041296Y-5333504D01*
X56046116Y-5347279D01*
X56041296Y-5363330D01*
X56041296Y-5380093D01*
X56032716Y-5391902D01*
X56028519Y-5405879D01*
X56015185Y-5416031D01*
X56005332Y-5429593D01*
X55979839Y-5442944D01*
X55945774Y-5454863D01*
X55667433Y-5588905D01*
X55405856Y-5753265D01*
X55164327Y-5945879D01*
X54945879Y-6164327D01*
X54753265Y-6405856D01*
X54588905Y-6667433D01*
X54454863Y-6945774D01*
X54352832Y-7237362D01*
X54284088Y-7538549D01*
X54249500Y-7845533D01*
X54249500Y-8154466D01*
X54284088Y-8461450D01*
X54352832Y-8762637D01*
X54454863Y-9054225D01*
X54588905Y-9332566D01*
X54639995Y-9413875D01*
X54753265Y-9594143D01*
X54945880Y-9835674D01*
X55164326Y-10054120D01*
X55405857Y-10246735D01*
X55667435Y-10411095D01*
X55945771Y-10545135D01*
X56237364Y-10647168D01*
X56538548Y-10715911D01*
X56845535Y-10750500D01*
X56845536Y-10750500D01*
X57154464Y-10750500D01*
X57154465Y-10750500D01*
X57461452Y-10715911D01*
X57762636Y-10647168D01*
X58054229Y-10545135D01*
X58332565Y-10411095D01*
X58594143Y-10246735D01*
X58835674Y-10054120D01*
X59054120Y-9835674D01*
X59246735Y-9594143D01*
X59411095Y-9332565D01*
X59545135Y-9054229D01*
X59557056Y-9020161D01*
X59594121Y-8971481D01*
X59652721Y-8953884D01*
X59710473Y-8974092D01*
X59745317Y-9024387D01*
X59749500Y-9052859D01*
X59749500Y-35947140D01*
X59730593Y-36005331D01*
X59681093Y-36041295D01*
X59619907Y-36041295D01*
X59570407Y-36005331D01*
X59557056Y-35979838D01*
X59545136Y-35945775D01*
X59545136Y-35945774D01*
X59545135Y-35945771D01*
X59411095Y-35667435D01*
X59246735Y-35405857D01*
X59054120Y-35164326D01*
X58835674Y-34945880D01*
X58594143Y-34753265D01*
X58332566Y-34588905D01*
X58054225Y-34454863D01*
X57762637Y-34352832D01*
X57461450Y-34284088D01*
X57154466Y-34249500D01*
X57154465Y-34249500D01*
X56845535Y-34249500D01*
X56845533Y-34249500D01*
X56538549Y-34284088D01*
X56237362Y-34352832D01*
X55945774Y-34454863D01*
X55667433Y-34588905D01*
X55405856Y-34753265D01*
X55164327Y-34945879D01*
X54945879Y-35164327D01*
X54753265Y-35405856D01*
X54588905Y-35667433D01*
X54454863Y-35945774D01*
X54352832Y-36237362D01*
X54284088Y-36538549D01*
X54249500Y-36845533D01*
X54249500Y-37154466D01*
X54284088Y-37461450D01*
X54352832Y-37762637D01*
X54454863Y-38054225D01*
X54588905Y-38332566D01*
X54753265Y-38594143D01*
X54945880Y-38835674D01*
X55164326Y-39054120D01*
X55405857Y-39246735D01*
X55667435Y-39411095D01*
X55945771Y-39545135D01*
X55945774Y-39545136D01*
X55979839Y-39557056D01*
X56028519Y-39594121D01*
X56046116Y-39652721D01*
X56025908Y-39710473D01*
X55975613Y-39745317D01*
X55947141Y-39749500D01*
X4052859Y-39749500D01*
X3994668Y-39730593D01*
X3958704Y-39681093D01*
X3958704Y-39619907D01*
X3994668Y-39570407D01*
X4020161Y-39557056D01*
X4025131Y-39555316D01*
X4054229Y-39545135D01*
X4332565Y-39411095D01*
X4594143Y-39246735D01*
X4835674Y-39054120D01*
X5054120Y-38835674D01*
X5246735Y-38594143D01*
X5411095Y-38332565D01*
X5545135Y-38054229D01*
X5647168Y-37762636D01*
X5715911Y-37461452D01*
X5750500Y-37154465D01*
X5750500Y-36845535D01*
X5715911Y-36538548D01*
X5647168Y-36237364D01*
X5545135Y-35945771D01*
X5411095Y-35667435D01*
X5246735Y-35405857D01*
X5054120Y-35164326D01*
X4835674Y-34945880D01*
X4594143Y-34753265D01*
X4332566Y-34588905D01*
X4054225Y-34454863D01*
X3762637Y-34352832D01*
X3461450Y-34284088D01*
X3154466Y-34249500D01*
X3154465Y-34249500D01*
X2845535Y-34249500D01*
X2845533Y-34249500D01*
X2538549Y-34284088D01*
X2237362Y-34352832D01*
X1945774Y-34454863D01*
X1667433Y-34588905D01*
X1405856Y-34753265D01*
X1164327Y-34945879D01*
X945879Y-35164327D01*
X753265Y-35405856D01*
X588905Y-35667433D01*
X454863Y-35945775D01*
X442944Y-35979838D01*
X405878Y-36028519D01*
X347278Y-36046115D01*
X289526Y-36025906D01*
X254682Y-35975612D01*
X250500Y-35947140D01*
X250500Y-27964525D01*
X28593500Y-27964525D01*
X28593500Y-28109474D01*
X28631017Y-28249489D01*
X28703487Y-28375010D01*
X28703489Y-28375012D01*
X28703491Y-28375015D01*
X28805985Y-28477509D01*
X28805987Y-28477510D01*
X28805989Y-28477512D01*
X28931511Y-28549982D01*
X28931512Y-28549982D01*
X28931515Y-28549984D01*
X29071525Y-28587500D01*
X29071526Y-28587500D01*
X29216474Y-28587500D01*
X29216475Y-28587500D01*
X29356485Y-28549984D01*
X29356487Y-28549982D01*
X29356489Y-28549982D01*
X29482010Y-28477512D01*
X29482010Y-28477511D01*
X29482015Y-28477509D01*
X29584509Y-28375015D01*
X29633300Y-28290507D01*
X29656982Y-28249489D01*
X29656982Y-28249487D01*
X29656984Y-28249485D01*
X29694500Y-28109475D01*
X29694500Y-28058545D01*
X29713407Y-28000354D01*
X29723496Y-27988541D01*
X30766441Y-26945596D01*
X30820958Y-26917819D01*
X30836445Y-26916600D01*
X37384360Y-26916600D01*
X37442551Y-26935507D01*
X37478515Y-26985007D01*
X37479987Y-27041223D01*
X37448100Y-27160225D01*
X37448100Y-27305174D01*
X37485617Y-27445189D01*
X37558087Y-27570710D01*
X37558089Y-27570712D01*
X37558091Y-27570715D01*
X37594105Y-27606729D01*
X37621881Y-27661244D01*
X37623100Y-27676731D01*
X37623100Y-28179235D01*
X37626410Y-28191587D01*
X37626411Y-28191591D01*
X37648690Y-28274739D01*
X37648691Y-28274741D01*
X37698125Y-28360363D01*
X37698126Y-28360363D01*
X43556138Y-34218375D01*
X43556140Y-34218376D01*
X43556141Y-34218377D01*
X43556142Y-34218378D01*
X43641759Y-34267809D01*
X43641757Y-34267809D01*
X43641761Y-34267810D01*
X43641763Y-34267811D01*
X43737264Y-34293400D01*
X43737265Y-34293400D01*
X43737266Y-34293400D01*
X51463136Y-34293400D01*
X51510886Y-34280605D01*
X51510887Y-34280605D01*
X51558634Y-34267811D01*
X51558633Y-34267811D01*
X51558638Y-34267810D01*
X51644262Y-34218375D01*
X51714175Y-34148462D01*
X51714174Y-34148462D01*
X52574874Y-33287763D01*
X52885542Y-32977096D01*
X52940059Y-32949319D01*
X52955546Y-32948100D01*
X53006474Y-32948100D01*
X53006475Y-32948100D01*
X53146485Y-32910584D01*
X53146487Y-32910582D01*
X53146489Y-32910582D01*
X53272010Y-32838112D01*
X53272010Y-32838111D01*
X53272015Y-32838109D01*
X53374509Y-32735615D01*
X53374512Y-32735610D01*
X53446982Y-32610089D01*
X53446982Y-32610087D01*
X53446984Y-32610085D01*
X53484500Y-32470075D01*
X53484500Y-32325125D01*
X53446984Y-32185115D01*
X53446982Y-32185112D01*
X53446982Y-32185110D01*
X53374512Y-32059589D01*
X53374510Y-32059587D01*
X53374509Y-32059585D01*
X53272015Y-31957091D01*
X53272012Y-31957089D01*
X53272010Y-31957087D01*
X53146488Y-31884617D01*
X53146489Y-31884617D01*
X53088441Y-31869063D01*
X53006475Y-31847100D01*
X52861525Y-31847100D01*
X52799790Y-31863641D01*
X52721510Y-31884617D01*
X52595989Y-31957087D01*
X52493487Y-32059589D01*
X52421017Y-32185110D01*
X52383500Y-32325125D01*
X52383500Y-32376053D01*
X52364593Y-32434244D01*
X52354504Y-32446057D01*
X51531004Y-33269557D01*
X51476487Y-33297334D01*
X51416055Y-33287763D01*
X51372790Y-33244498D01*
X51362000Y-33199553D01*
X51362000Y-33145325D01*
X51349609Y-33099081D01*
X51324484Y-33005315D01*
X51324482Y-33005312D01*
X51324482Y-33005310D01*
X51252012Y-32879789D01*
X51252007Y-32879783D01*
X51215996Y-32843771D01*
X51188219Y-32789254D01*
X51187000Y-32773768D01*
X51187000Y-30100866D01*
X51187000Y-30100865D01*
X51161410Y-30005362D01*
X51161408Y-30005359D01*
X51161408Y-30005357D01*
X51111975Y-29919738D01*
X51042062Y-29849824D01*
X51042062Y-29849825D01*
X49090696Y-27898459D01*
X49062919Y-27843942D01*
X49061700Y-27828455D01*
X49061700Y-27777525D01*
X49030542Y-27661244D01*
X49024184Y-27637515D01*
X49024182Y-27637512D01*
X49024182Y-27637510D01*
X48951712Y-27511989D01*
X48951710Y-27511987D01*
X48951709Y-27511985D01*
X48849215Y-27409491D01*
X48849212Y-27409489D01*
X48849210Y-27409487D01*
X48723688Y-27337017D01*
X48723689Y-27337017D01*
X48694096Y-27329087D01*
X48583675Y-27299500D01*
X48438725Y-27299500D01*
X48376990Y-27316041D01*
X48298710Y-27337017D01*
X48173189Y-27409487D01*
X48173183Y-27409492D01*
X48137171Y-27445504D01*
X48082654Y-27473281D01*
X48067168Y-27474500D01*
X47834636Y-27474500D01*
X47735764Y-27474500D01*
X47690980Y-27486500D01*
X47690979Y-27486499D01*
X47640262Y-27500089D01*
X47619659Y-27511985D01*
X47598821Y-27524016D01*
X47584093Y-27532519D01*
X47554639Y-27549523D01*
X44331904Y-30772259D01*
X44277387Y-30800036D01*
X44216955Y-30790465D01*
X44173690Y-30747200D01*
X44162900Y-30702255D01*
X44162900Y-26563066D01*
X44162900Y-26563065D01*
X44137310Y-26467562D01*
X44137308Y-26467559D01*
X44137308Y-26467557D01*
X44087875Y-26381938D01*
X44017962Y-26312024D01*
X44017962Y-26312025D01*
X33446596Y-15740659D01*
X33418819Y-15686142D01*
X33417600Y-15670655D01*
X33417600Y-15619725D01*
X33380084Y-15479715D01*
X33380082Y-15479712D01*
X33380082Y-15479710D01*
X33307612Y-15354189D01*
X33307610Y-15354187D01*
X33307609Y-15354185D01*
X33205115Y-15251691D01*
X33205112Y-15251689D01*
X33205110Y-15251687D01*
X33079588Y-15179217D01*
X33079589Y-15179217D01*
X33049996Y-15171287D01*
X32939575Y-15141700D01*
X32794625Y-15141700D01*
X32732890Y-15158241D01*
X32654610Y-15179217D01*
X32529089Y-15251687D01*
X32426587Y-15354189D01*
X32354117Y-15479710D01*
X32316600Y-15619725D01*
X32316600Y-15764674D01*
X32354117Y-15904689D01*
X32426587Y-16030210D01*
X32426589Y-16030212D01*
X32426591Y-16030215D01*
X32529085Y-16132709D01*
X32529087Y-16132710D01*
X32529089Y-16132712D01*
X32654611Y-16205182D01*
X32654612Y-16205182D01*
X32654615Y-16205184D01*
X32794625Y-16242700D01*
X32845555Y-16242700D01*
X32903746Y-16261607D01*
X32915559Y-16271696D01*
X43382904Y-26739041D01*
X43410681Y-26793558D01*
X43411900Y-26809045D01*
X43411900Y-31943068D01*
X43411629Y-31943899D01*
X43411886Y-31944735D01*
X43409630Y-31950053D01*
X43392993Y-32001259D01*
X43392002Y-32002599D01*
X43387819Y-32008156D01*
X43346891Y-32049085D01*
X43313527Y-32106871D01*
X43309903Y-32111688D01*
X43289543Y-32125962D01*
X43271067Y-32142598D01*
X43264889Y-32143247D01*
X43259804Y-32146813D01*
X43234943Y-32146394D01*
X43210217Y-32148993D01*
X43204486Y-32145881D01*
X43198628Y-32145783D01*
X43183923Y-32134716D01*
X43160797Y-32122160D01*
X43048896Y-32010258D01*
X43021119Y-31955742D01*
X43019900Y-31940255D01*
X43019900Y-30934165D01*
X43019900Y-30934164D01*
X42994311Y-30838663D01*
X42944875Y-30753037D01*
X38432463Y-26240626D01*
X38432463Y-26240625D01*
X38346841Y-26191191D01*
X38346834Y-26191188D01*
X38299085Y-26178394D01*
X38299084Y-26178394D01*
X38251338Y-26165600D01*
X38251336Y-26165600D01*
X38251335Y-26165600D01*
X30689336Y-26165600D01*
X30590464Y-26165600D01*
X30542713Y-26178395D01*
X30542712Y-26178394D01*
X30494962Y-26191189D01*
X30494958Y-26191191D01*
X30409336Y-26240625D01*
X30409337Y-26240626D01*
X29192459Y-27457504D01*
X29137942Y-27485281D01*
X29122455Y-27486500D01*
X29071525Y-27486500D01*
X29020811Y-27500089D01*
X28931510Y-27524017D01*
X28805989Y-27596487D01*
X28703487Y-27698989D01*
X28631017Y-27824510D01*
X28593500Y-27964525D01*
X250500Y-27964525D01*
X250500Y-21327129D01*
X7149500Y-21327129D01*
X7149500Y-22672866D01*
X7149501Y-22672870D01*
X7155908Y-22732480D01*
X7155909Y-22732485D01*
X7206202Y-22867329D01*
X7292450Y-22982541D01*
X7292454Y-22982546D01*
X7292457Y-22982548D01*
X7292458Y-22982549D01*
X7407670Y-23068797D01*
X7542511Y-23119089D01*
X7542512Y-23119089D01*
X7542517Y-23119091D01*
X7602127Y-23125500D01*
X8397872Y-23125499D01*
X8457483Y-23119091D01*
X8524907Y-23093943D01*
X8592329Y-23068797D01*
X8592329Y-23068796D01*
X8592331Y-23068796D01*
X8707546Y-22982546D01*
X8793796Y-22867331D01*
X8844091Y-22732483D01*
X8850500Y-22672873D01*
X8850499Y-21327128D01*
X8844091Y-21267517D01*
X8844089Y-21267511D01*
X8793797Y-21132670D01*
X8707549Y-21017458D01*
X8707548Y-21017457D01*
X8707546Y-21017454D01*
X8657227Y-20979785D01*
X8621974Y-20929776D01*
X8622848Y-20868597D01*
X8646554Y-20830526D01*
X8660237Y-20816843D01*
X8660239Y-20816840D01*
X8753259Y-20677626D01*
X8817335Y-20522934D01*
X8849999Y-20358720D01*
X8850000Y-20358716D01*
X8850000Y-20150001D01*
X8849999Y-20150000D01*
X8346410Y-20150000D01*
X8349444Y-20144745D01*
X8375000Y-20049370D01*
X8375000Y-19950630D01*
X8349444Y-19855255D01*
X8346410Y-19850000D01*
X8849999Y-19850000D01*
X8850000Y-19849999D01*
X8850000Y-19641283D01*
X8849999Y-19641279D01*
X8817335Y-19477065D01*
X8753260Y-19322374D01*
X8660240Y-19183159D01*
X8541840Y-19064759D01*
X8402625Y-18971739D01*
X8247939Y-18907666D01*
X8247933Y-18907664D01*
X8150000Y-18888184D01*
X8150000Y-19653589D01*
X8144745Y-19650556D01*
X8049370Y-19625000D01*
X7950630Y-19625000D01*
X7855255Y-19650556D01*
X7850000Y-19653589D01*
X7850000Y-18888184D01*
X7752066Y-18907664D01*
X7752060Y-18907666D01*
X7597374Y-18971739D01*
X7458159Y-19064759D01*
X7339759Y-19183159D01*
X7246739Y-19322374D01*
X7182664Y-19477065D01*
X7150000Y-19641279D01*
X7150000Y-19849999D01*
X7150001Y-19850000D01*
X7653590Y-19850000D01*
X7650556Y-19855255D01*
X7625000Y-19950630D01*
X7625000Y-20049370D01*
X7650556Y-20144745D01*
X7653590Y-20150000D01*
X7150001Y-20150000D01*
X7150000Y-20150001D01*
X7150000Y-20358720D01*
X7182664Y-20522934D01*
X7246739Y-20677625D01*
X7339759Y-20816840D01*
X7353447Y-20830528D01*
X7381224Y-20885045D01*
X7371653Y-20945477D01*
X7342773Y-20979785D01*
X7292455Y-21017453D01*
X7292450Y-21017458D01*
X7206202Y-21132670D01*
X7155910Y-21267511D01*
X7155908Y-21267522D01*
X7149500Y-21327129D01*
X250500Y-21327129D01*
X250500Y-10891055D01*
X17950000Y-10891055D01*
X17950000Y-11209999D01*
X17950001Y-11210000D01*
X18350000Y-11210000D01*
X18350000Y-11510000D01*
X17950001Y-11510000D01*
X17950000Y-11510001D01*
X17950000Y-11828944D01*
X17976901Y-11964183D01*
X18029666Y-12091571D01*
X18106271Y-12206220D01*
X18203779Y-12303728D01*
X18318428Y-12380333D01*
X18445811Y-12433096D01*
X18445822Y-12433099D01*
X18500000Y-12443875D01*
X18500000Y-12019808D01*
X18534204Y-12039556D01*
X18610504Y-12060000D01*
X18689496Y-12060000D01*
X18765796Y-12039556D01*
X18800000Y-12019808D01*
X18800000Y-12443874D01*
X18854177Y-12433099D01*
X18854188Y-12433096D01*
X18981571Y-12380333D01*
X19096220Y-12303728D01*
X19193728Y-12206220D01*
X19270333Y-12091571D01*
X19323098Y-11964183D01*
X19349999Y-11828944D01*
X19350000Y-11828942D01*
X19350000Y-11510001D01*
X19349999Y-11510000D01*
X18950000Y-11510000D01*
X18950000Y-11210000D01*
X19349999Y-11210000D01*
X19350000Y-11209999D01*
X19350000Y-10891057D01*
X19349999Y-10891055D01*
X26600000Y-10891055D01*
X26600000Y-11209999D01*
X26600001Y-11210000D01*
X27000000Y-11210000D01*
X27000000Y-11510000D01*
X26600001Y-11510000D01*
X26600000Y-11510001D01*
X26600000Y-11828944D01*
X26626901Y-11964183D01*
X26679666Y-12091571D01*
X26756271Y-12206220D01*
X26853779Y-12303728D01*
X26968428Y-12380333D01*
X27095811Y-12433096D01*
X27095822Y-12433099D01*
X27150000Y-12443875D01*
X27150000Y-12019808D01*
X27184204Y-12039556D01*
X27260504Y-12060000D01*
X27339496Y-12060000D01*
X27415796Y-12039556D01*
X27450000Y-12019808D01*
X27450000Y-12443874D01*
X27504177Y-12433099D01*
X27504188Y-12433096D01*
X27631571Y-12380333D01*
X27746220Y-12303728D01*
X27843728Y-12206220D01*
X27920333Y-12091571D01*
X27973098Y-11964183D01*
X27999999Y-11828944D01*
X28000000Y-11828942D01*
X28000000Y-11510001D01*
X27999999Y-11510000D01*
X27600000Y-11510000D01*
X27600000Y-11210000D01*
X27999999Y-11210000D01*
X28000000Y-11209999D01*
X28000000Y-10891057D01*
X27999999Y-10891055D01*
X27973098Y-10755816D01*
X27920333Y-10628428D01*
X27843728Y-10513779D01*
X27746220Y-10416271D01*
X27631571Y-10339666D01*
X27504182Y-10286901D01*
X27450000Y-10276123D01*
X27450000Y-10700191D01*
X27415796Y-10680444D01*
X27339496Y-10660000D01*
X27260504Y-10660000D01*
X27184204Y-10680444D01*
X27150000Y-10700191D01*
X27150000Y-10276123D01*
X27095817Y-10286901D01*
X26968428Y-10339666D01*
X26853779Y-10416271D01*
X26756271Y-10513779D01*
X26679666Y-10628428D01*
X26626901Y-10755816D01*
X26600000Y-10891055D01*
X19349999Y-10891055D01*
X19323098Y-10755816D01*
X19270333Y-10628428D01*
X19193728Y-10513779D01*
X19096220Y-10416271D01*
X18981571Y-10339666D01*
X18854182Y-10286901D01*
X18800000Y-10276123D01*
X18800000Y-10700191D01*
X18765796Y-10680444D01*
X18689496Y-10660000D01*
X18610504Y-10660000D01*
X18534204Y-10680444D01*
X18500000Y-10700191D01*
X18500000Y-10276123D01*
X18445817Y-10286901D01*
X18318428Y-10339666D01*
X18203779Y-10416271D01*
X18106271Y-10513779D01*
X18029666Y-10628428D01*
X17976901Y-10755816D01*
X17950000Y-10891055D01*
X250500Y-10891055D01*
X250500Y-9052859D01*
X269407Y-8994668D01*
X318907Y-8958704D01*
X380093Y-8958704D01*
X429593Y-8994668D01*
X442944Y-9020161D01*
X454863Y-9054225D01*
X588905Y-9332566D01*
X639995Y-9413875D01*
X753265Y-9594143D01*
X945880Y-9835674D01*
X1164326Y-10054120D01*
X1405857Y-10246735D01*
X1667435Y-10411095D01*
X1945771Y-10545135D01*
X2237364Y-10647168D01*
X2538548Y-10715911D01*
X2845535Y-10750500D01*
X2845536Y-10750500D01*
X3154464Y-10750500D01*
X3154465Y-10750500D01*
X3461452Y-10715911D01*
X3762636Y-10647168D01*
X4054229Y-10545135D01*
X4332565Y-10411095D01*
X4594143Y-10246735D01*
X4835674Y-10054120D01*
X5054120Y-9835674D01*
X5246735Y-9594143D01*
X5411095Y-9332565D01*
X5545135Y-9054229D01*
X5647168Y-8762636D01*
X5715911Y-8461452D01*
X5750500Y-8154465D01*
X5750500Y-7845535D01*
X5715911Y-7538548D01*
X5677148Y-7368716D01*
X5647169Y-7237367D01*
X5630206Y-7188889D01*
X5630205Y-7188887D01*
X5623439Y-7169552D01*
X5620466Y-7161055D01*
X17950000Y-7161055D01*
X17950000Y-7829999D01*
X17950001Y-7830000D01*
X18350000Y-7830000D01*
X18350000Y-8130000D01*
X17950001Y-8130000D01*
X17950000Y-8130001D01*
X17950000Y-8798944D01*
X17976901Y-8934183D01*
X18029666Y-9061571D01*
X18106271Y-9176220D01*
X18203779Y-9273728D01*
X18318428Y-9350333D01*
X18445811Y-9403096D01*
X18445822Y-9403099D01*
X18500000Y-9413875D01*
X18500000Y-8989808D01*
X18534204Y-9009556D01*
X18610504Y-9030000D01*
X18689496Y-9030000D01*
X18765796Y-9009556D01*
X18800000Y-8989808D01*
X18800000Y-9413874D01*
X18854177Y-9403099D01*
X18854188Y-9403096D01*
X18981571Y-9350333D01*
X19096220Y-9273728D01*
X19193728Y-9176220D01*
X19270333Y-9061571D01*
X19323098Y-8934183D01*
X19349999Y-8798944D01*
X19350000Y-8798942D01*
X19350000Y-8750104D01*
X19368907Y-8691913D01*
X19418407Y-8655949D01*
X19461922Y-8651951D01*
X19483124Y-8654742D01*
X19787867Y-8350000D01*
X19483123Y-8045256D01*
X19462776Y-8080500D01*
X19417306Y-8121441D01*
X19377039Y-8130000D01*
X18950000Y-8130000D01*
X18950000Y-7830000D01*
X19349999Y-7830000D01*
X19350000Y-7829999D01*
X19350000Y-7516875D01*
X19695255Y-7516875D01*
X19768406Y-7559109D01*
X19844029Y-7579373D01*
X19895344Y-7612697D01*
X19917270Y-7669819D01*
X19901434Y-7728919D01*
X19853884Y-7767425D01*
X19844029Y-7770627D01*
X19768407Y-7790889D01*
X19695255Y-7833124D01*
X20012131Y-8150000D01*
X19960218Y-8150000D01*
X19886709Y-8180448D01*
X19830448Y-8236709D01*
X19800000Y-8310218D01*
X19800000Y-8389782D01*
X19830448Y-8463291D01*
X19886709Y-8519552D01*
X19960218Y-8550000D01*
X20039782Y-8550000D01*
X20113291Y-8519552D01*
X20169552Y-8463291D01*
X20200000Y-8389782D01*
X20200000Y-8337868D01*
X20220504Y-8358372D01*
X20246423Y-8403884D01*
X20249500Y-8415935D01*
X20249500Y-8429057D01*
X20290423Y-8581784D01*
X20292973Y-8586202D01*
X20295882Y-8597592D01*
X20294351Y-8621408D01*
X20296223Y-8645196D01*
X20292424Y-8651394D01*
X20291958Y-8658652D01*
X20276719Y-8677022D01*
X20264253Y-8697365D01*
X20257537Y-8700146D01*
X20252894Y-8705744D01*
X20229770Y-8711647D01*
X20207725Y-8720779D01*
X20200654Y-8719081D01*
X20193610Y-8720880D01*
X20171436Y-8712066D01*
X20148231Y-8706495D01*
X20138885Y-8699128D01*
X20136752Y-8698280D01*
X20135699Y-8696616D01*
X20129955Y-8692088D01*
X19999999Y-8562132D01*
X19695255Y-8866875D01*
X19768406Y-8909109D01*
X19921011Y-8950000D01*
X20078989Y-8950000D01*
X20231589Y-8909110D01*
X20231593Y-8909109D01*
X20309940Y-8863874D01*
X20329647Y-8822557D01*
X20383417Y-8793361D01*
X20444079Y-8801346D01*
X20471460Y-8820696D01*
X20481284Y-8830520D01*
X20618216Y-8909577D01*
X20770943Y-8950500D01*
X20770945Y-8950500D01*
X20929055Y-8950500D01*
X20929057Y-8950500D01*
X21081784Y-8909577D01*
X21218716Y-8830520D01*
X21330520Y-8718716D01*
X21357800Y-8671466D01*
X21403265Y-8630527D01*
X21464115Y-8624130D01*
X21493034Y-8635231D01*
X21564708Y-8676612D01*
X21564706Y-8676612D01*
X21564710Y-8676613D01*
X21564712Y-8676614D01*
X21653856Y-8700500D01*
X21653858Y-8700500D01*
X21746142Y-8700500D01*
X21746144Y-8700500D01*
X21835288Y-8676614D01*
X21915212Y-8630469D01*
X21980469Y-8565212D01*
X22026614Y-8485288D01*
X22029373Y-8474989D01*
X22062697Y-8423675D01*
X22119818Y-8401748D01*
X22178919Y-8417583D01*
X22217424Y-8465133D01*
X22220627Y-8474990D01*
X22223386Y-8485289D01*
X22269529Y-8565209D01*
X22269531Y-8565212D01*
X22334788Y-8630469D01*
X22414712Y-8676614D01*
X22503856Y-8700500D01*
X22503858Y-8700500D01*
X22596142Y-8700500D01*
X22596144Y-8700500D01*
X22685288Y-8676614D01*
X22765212Y-8630469D01*
X22830469Y-8565212D01*
X22876614Y-8485288D01*
X22879373Y-8474989D01*
X22912697Y-8423675D01*
X22969818Y-8401748D01*
X23028919Y-8417583D01*
X23067424Y-8465133D01*
X23070627Y-8474990D01*
X23073386Y-8485289D01*
X23119529Y-8565209D01*
X23119531Y-8565212D01*
X23184788Y-8630469D01*
X23264712Y-8676614D01*
X23353856Y-8700500D01*
X23353858Y-8700500D01*
X23446142Y-8700500D01*
X23446144Y-8700500D01*
X23535288Y-8676614D01*
X23606964Y-8635230D01*
X23666811Y-8622509D01*
X23722707Y-8647395D01*
X23742200Y-8671466D01*
X23745408Y-8677022D01*
X23769480Y-8718716D01*
X23881284Y-8830520D01*
X24018216Y-8909577D01*
X24170943Y-8950500D01*
X24170945Y-8950500D01*
X24329055Y-8950500D01*
X24329057Y-8950500D01*
X24481784Y-8909577D01*
X24618716Y-8830520D01*
X24618718Y-8830517D01*
X24624335Y-8827275D01*
X24625725Y-8829683D01*
X24672405Y-8813152D01*
X24724850Y-8828685D01*
X24725665Y-8827275D01*
X24731281Y-8830517D01*
X24731284Y-8830520D01*
X24868216Y-8909577D01*
X25020943Y-8950500D01*
X25020945Y-8950500D01*
X25179055Y-8950500D01*
X25179057Y-8950500D01*
X25331784Y-8909577D01*
X25468716Y-8830520D01*
X25478534Y-8820701D01*
X25533048Y-8792923D01*
X25593480Y-8802493D01*
X25636746Y-8845756D01*
X25642878Y-8865502D01*
X25718406Y-8909109D01*
X25871011Y-8950000D01*
X26028989Y-8950000D01*
X26181589Y-8909110D01*
X26181593Y-8909109D01*
X26254742Y-8866875D01*
X25949999Y-8562132D01*
X25820044Y-8692087D01*
X25765528Y-8719864D01*
X25705096Y-8710293D01*
X25661831Y-8667028D01*
X25652260Y-8606596D01*
X25654118Y-8597591D01*
X25657025Y-8586203D01*
X25659577Y-8581784D01*
X25700500Y-8429057D01*
X25700500Y-8415935D01*
X25703577Y-8403884D01*
X25713609Y-8388029D01*
X25719407Y-8370185D01*
X25729496Y-8358372D01*
X25750000Y-8337868D01*
X25750000Y-8389782D01*
X25780448Y-8463291D01*
X25836709Y-8519552D01*
X25910218Y-8550000D01*
X25989782Y-8550000D01*
X26063291Y-8519552D01*
X26119552Y-8463291D01*
X26150000Y-8389782D01*
X26150000Y-8310218D01*
X26119552Y-8236709D01*
X26063291Y-8180448D01*
X25989782Y-8150000D01*
X25937868Y-8150000D01*
X26254743Y-7833124D01*
X26181593Y-7790890D01*
X26105970Y-7770627D01*
X26054656Y-7737303D01*
X26032729Y-7680181D01*
X26048565Y-7621081D01*
X26096114Y-7582576D01*
X26105970Y-7579373D01*
X26181589Y-7559110D01*
X26181593Y-7559109D01*
X26254743Y-7516875D01*
X26254743Y-7516874D01*
X25937869Y-7200000D01*
X25989782Y-7200000D01*
X26063291Y-7169552D01*
X26119552Y-7113291D01*
X26150000Y-7039782D01*
X26150000Y-6999999D01*
X26162132Y-6999999D01*
X26466875Y-7304742D01*
X26488078Y-7301951D01*
X26548239Y-7313101D01*
X26590356Y-7357483D01*
X26600000Y-7400104D01*
X26600000Y-7829999D01*
X26600001Y-7830000D01*
X27000000Y-7830000D01*
X27000000Y-8130000D01*
X26572960Y-8130000D01*
X26514769Y-8111093D01*
X26487224Y-8080502D01*
X26466874Y-8045256D01*
X26162132Y-8349999D01*
X26466875Y-8654742D01*
X26488078Y-8651951D01*
X26548239Y-8663101D01*
X26590356Y-8707483D01*
X26600000Y-8750104D01*
X26600000Y-8798944D01*
X26626901Y-8934183D01*
X26679666Y-9061571D01*
X26756271Y-9176220D01*
X26853779Y-9273728D01*
X26968428Y-9350333D01*
X27095811Y-9403096D01*
X27095822Y-9403099D01*
X27150000Y-9413875D01*
X27150000Y-8989808D01*
X27184204Y-9009556D01*
X27260504Y-9030000D01*
X27339496Y-9030000D01*
X27415796Y-9009556D01*
X27450000Y-8989808D01*
X27450000Y-9413874D01*
X27504177Y-9403099D01*
X27504188Y-9403096D01*
X27631571Y-9350333D01*
X27746220Y-9273728D01*
X27843728Y-9176220D01*
X27920333Y-9061571D01*
X27973098Y-8934183D01*
X27999999Y-8798944D01*
X28000000Y-8798942D01*
X28000000Y-8130001D01*
X27999999Y-8130000D01*
X27600000Y-8130000D01*
X27600000Y-7830000D01*
X27999999Y-7830000D01*
X28000000Y-7829999D01*
X28000000Y-7161057D01*
X27999999Y-7161055D01*
X27973098Y-7025816D01*
X27920333Y-6898428D01*
X27843728Y-6783779D01*
X27746220Y-6686271D01*
X27631571Y-6609666D01*
X27504182Y-6556901D01*
X27450000Y-6546123D01*
X27450000Y-6970191D01*
X27415796Y-6950444D01*
X27339496Y-6930000D01*
X27260504Y-6930000D01*
X27184204Y-6950444D01*
X27150000Y-6970191D01*
X27150000Y-6546123D01*
X27095817Y-6556901D01*
X26968428Y-6609666D01*
X26853779Y-6686271D01*
X26756271Y-6783779D01*
X26704187Y-6861730D01*
X26656137Y-6899610D01*
X26594999Y-6902012D01*
X26544125Y-6868020D01*
X26526244Y-6832352D01*
X26509109Y-6768406D01*
X26466875Y-6695256D01*
X26162132Y-6999999D01*
X26150000Y-6999999D01*
X26150000Y-6960218D01*
X26119552Y-6886709D01*
X26063291Y-6830448D01*
X25989782Y-6800000D01*
X25910218Y-6800000D01*
X25836709Y-6830448D01*
X25780448Y-6886709D01*
X25750000Y-6960218D01*
X25750000Y-7012132D01*
X25729496Y-6991628D01*
X25701719Y-6937111D01*
X25700500Y-6921624D01*
X25700500Y-6920944D01*
X25695427Y-6902012D01*
X25659577Y-6768216D01*
X25659574Y-6768211D01*
X25658578Y-6765805D01*
X25658431Y-6763941D01*
X25657897Y-6761948D01*
X25658266Y-6761849D01*
X25653774Y-6704808D01*
X25685741Y-6652638D01*
X25742268Y-6629221D01*
X25801763Y-6643501D01*
X25820044Y-6657911D01*
X25950000Y-6787867D01*
X26254743Y-6483124D01*
X26181593Y-6440890D01*
X26028989Y-6400000D01*
X25871011Y-6400000D01*
X25718407Y-6440889D01*
X25640057Y-6486125D01*
X25620349Y-6527443D01*
X25566578Y-6556637D01*
X25505916Y-6548650D01*
X25478537Y-6529301D01*
X25468716Y-6519480D01*
X25331784Y-6440423D01*
X25179057Y-6399500D01*
X25020943Y-6399500D01*
X24868216Y-6440423D01*
X24731284Y-6519480D01*
X24619479Y-6631285D01*
X24592200Y-6678533D01*
X24546729Y-6719474D01*
X24485879Y-6725868D01*
X24456963Y-6714768D01*
X24385290Y-6673387D01*
X24385289Y-6673386D01*
X24385288Y-6673386D01*
X24296144Y-6649500D01*
X24203856Y-6649500D01*
X24114712Y-6673386D01*
X24114711Y-6673386D01*
X24114709Y-6673387D01*
X24034790Y-6719529D01*
X23969529Y-6784790D01*
X23923385Y-6864712D01*
X23920626Y-6875011D01*
X23887302Y-6926325D01*
X23830180Y-6948251D01*
X23771080Y-6932415D01*
X23732575Y-6884865D01*
X23729374Y-6875011D01*
X23726614Y-6864712D01*
X23689252Y-6800000D01*
X23680469Y-6784788D01*
X23615212Y-6719531D01*
X23615113Y-6719474D01*
X23535290Y-6673387D01*
X23535289Y-6673386D01*
X23535288Y-6673386D01*
X23446144Y-6649500D01*
X23353856Y-6649500D01*
X23264712Y-6673386D01*
X23264711Y-6673386D01*
X23264709Y-6673387D01*
X23184790Y-6719529D01*
X23119529Y-6784790D01*
X23073385Y-6864712D01*
X23070626Y-6875011D01*
X23037302Y-6926325D01*
X22980180Y-6948251D01*
X22921080Y-6932415D01*
X22882575Y-6884865D01*
X22879374Y-6875011D01*
X22876614Y-6864712D01*
X22839252Y-6800000D01*
X22830469Y-6784788D01*
X22765212Y-6719531D01*
X22765113Y-6719474D01*
X22685290Y-6673387D01*
X22685289Y-6673386D01*
X22685288Y-6673386D01*
X22596144Y-6649500D01*
X22503856Y-6649500D01*
X22472466Y-6657911D01*
X22414710Y-6673386D01*
X22343034Y-6714769D01*
X22283185Y-6727490D01*
X22227290Y-6702603D01*
X22207799Y-6678533D01*
X22180520Y-6631284D01*
X22068716Y-6519480D01*
X21931784Y-6440423D01*
X21779057Y-6399500D01*
X21620943Y-6399500D01*
X21468216Y-6440423D01*
X21331284Y-6519480D01*
X21331281Y-6519482D01*
X21325665Y-6522725D01*
X21324278Y-6520324D01*
X21277541Y-6536848D01*
X21225156Y-6521302D01*
X21224335Y-6522725D01*
X21218718Y-6519482D01*
X21218716Y-6519480D01*
X21081784Y-6440423D01*
X20929057Y-6399500D01*
X20770943Y-6399500D01*
X20618216Y-6440423D01*
X20507685Y-6504238D01*
X20481281Y-6519482D01*
X20471461Y-6529302D01*
X20416944Y-6557078D01*
X20356512Y-6547504D01*
X20313249Y-6504238D01*
X20307119Y-6484496D01*
X20231593Y-6440890D01*
X20078989Y-6400000D01*
X19921011Y-6400000D01*
X19768407Y-6440889D01*
X19695256Y-6483123D01*
X20000000Y-6787867D01*
X20129955Y-6657912D01*
X20184472Y-6630134D01*
X20244904Y-6639705D01*
X20288169Y-6682970D01*
X20297740Y-6743402D01*
X20295882Y-6752407D01*
X20292973Y-6763798D01*
X20290423Y-6768216D01*
X20249500Y-6920943D01*
X20249500Y-6934064D01*
X20246423Y-6946116D01*
X20236390Y-6961970D01*
X20230593Y-6979815D01*
X20220504Y-6991628D01*
X20200000Y-7012131D01*
X20200000Y-6960218D01*
X20169552Y-6886709D01*
X20113291Y-6830448D01*
X20039782Y-6800000D01*
X19960218Y-6800000D01*
X19886709Y-6830448D01*
X19830448Y-6886709D01*
X19800000Y-6960218D01*
X19800000Y-7039782D01*
X19830448Y-7113291D01*
X19886709Y-7169552D01*
X19960218Y-7200000D01*
X20012132Y-7200000D01*
X19695256Y-7516875D01*
X19695255Y-7516875D01*
X19350000Y-7516875D01*
X19350000Y-7400104D01*
X19368907Y-7341913D01*
X19418407Y-7305949D01*
X19461922Y-7301951D01*
X19483124Y-7304742D01*
X19787867Y-7000000D01*
X19483123Y-6695256D01*
X19440888Y-6768410D01*
X19423754Y-6832353D01*
X19390430Y-6883667D01*
X19333308Y-6905593D01*
X19274208Y-6889757D01*
X19245812Y-6861730D01*
X19193728Y-6783779D01*
X19096220Y-6686271D01*
X18981571Y-6609666D01*
X18854182Y-6556901D01*
X18800000Y-6546123D01*
X18800000Y-6970191D01*
X18765796Y-6950444D01*
X18689496Y-6930000D01*
X18610504Y-6930000D01*
X18534204Y-6950444D01*
X18500000Y-6970191D01*
X18500000Y-6546123D01*
X18445817Y-6556901D01*
X18318428Y-6609666D01*
X18203779Y-6686271D01*
X18106271Y-6783779D01*
X18029666Y-6898428D01*
X17976901Y-7025816D01*
X17950000Y-7161055D01*
X5620466Y-7161055D01*
X5545135Y-6945771D01*
X5411095Y-6667435D01*
X5405111Y-6657912D01*
X5336458Y-6548650D01*
X5246735Y-6405857D01*
X5054120Y-6164326D01*
X4835674Y-5945880D01*
X4594143Y-5753265D01*
X4332566Y-5588905D01*
X4054225Y-5454863D01*
X4020161Y-5442944D01*
X3971481Y-5405879D01*
X3953884Y-5347279D01*
X3974092Y-5289527D01*
X4024387Y-5254683D01*
X4052859Y-5250500D01*
X55947141Y-5250500D01*
X55961023Y-5255010D01*
G37*
%TD.AperFunction*%
%TD*%
M02*
