M48
; DRILL file KiCad 10.0.3 date 2026-06-01T07:00:29
; FORMAT={-:-/ absolute / metric / decimal}
; #@! TF.CreationDate,2026-06-01T07:00:29-05:00
; #@! TF.GenerationSoftware,Kicad,Pcbnew,10.0.3
; #@! TF.FileFunction,MixedPlating,1,2
FMAT,2
METRIC
; #@! TA.AperFunction,Plated,PTH,ViaDrill
T1C0.300
; #@! TA.AperFunction,Plated,PTH,ComponentDrill
T2C0.400
; #@! TA.AperFunction,Plated,PTH,ComponentDrill
T3C0.600
; #@! TA.AperFunction,Plated,PTH,ComponentDrill
T4C0.750
; #@! TA.AperFunction,Plated,PTH,ComponentDrill
T5C2.700
%
G90
G05
T1
X29.144Y-28.037
X32.867Y-15.692
X37.999Y-27.233
X43.787Y-32.387
X47.201Y-29.406
X48.511Y-27.85
X50.185Y-32.553
X50.811Y-33.218
X52.934Y-32.398
T2
X20.0Y-7.0
X20.0Y-8.35
X20.85Y-7.0
X20.85Y-8.35
X21.7Y-7.0
X21.7Y-8.35
X22.55Y-7.0
X22.55Y-8.35
X23.4Y-7.0
X23.4Y-8.35
X24.25Y-7.0
X24.25Y-8.35
X25.1Y-7.0
X25.1Y-8.35
X25.95Y-7.0
X25.95Y-8.35
T4
X8.0Y-20.0
X8.0Y-22.0
T5
X3.0Y-8.0
X3.0Y-37.0
X57.0Y-8.0
X57.0Y-37.0
T3
X18.65Y-7.23G85X18.65Y-8.73
G05
X18.65Y-10.96G85X18.65Y-11.76
G05
X27.3Y-7.23G85X27.3Y-8.73
G05
X27.3Y-10.96G85X27.3Y-11.76
G05
M30
