M48
; DRILL file KiCad 10.0.3 date 2026-05-31T15:12:47
; FORMAT={-:-/ absolute / metric / decimal}
; #@! TF.CreationDate,2026-05-31T15:12:47-05:00
; #@! TF.GenerationSoftware,Kicad,Pcbnew,10.0.3
; #@! TF.FileFunction,MixedPlating,1,2
FMAT,2
METRIC
; #@! TA.AperFunction,Plated,PTH,ViaDrill
T1C0.300
; #@! TA.AperFunction,Plated,PTH,ComponentDrill
T2C0.400
; #@! TA.AperFunction,Plated,PTH,ComponentDrill
T3C0.600
; #@! TA.AperFunction,Plated,PTH,ComponentDrill
T4C0.750
; #@! TA.AperFunction,Plated,PTH,ComponentDrill
T5C2.700
%
G90
G05
T1
X32.867Y-24.307
X32.867Y-30.05
X37.971Y-33.621
X41.851Y-29.632
X42.091Y-32.514
X42.47Y-33.586
X49.119Y-34.868
X52.05Y-33.498
X52.505Y-29.52
X52.725Y-38.609
X54.034Y-29.632
T2
X20.0Y-7.0
X20.0Y-8.35
X20.85Y-7.0
X20.85Y-8.35
X21.7Y-7.0
X21.7Y-8.35
X22.55Y-7.0
X22.55Y-8.35
X23.4Y-7.0
X23.4Y-8.35
X24.25Y-7.0
X24.25Y-8.35
X25.1Y-7.0
X25.1Y-8.35
X25.95Y-7.0
X25.95Y-8.35
T4
X8.0Y-20.0
X8.0Y-22.0
T5
X3.3Y-3.3
X3.3Y-36.7
X56.7Y-3.3
X56.7Y-36.7
T3
X18.65Y-7.23G85X18.65Y-8.73
G05
X18.65Y-10.96G85X18.65Y-11.76
G05
X27.3Y-7.23G85X27.3Y-8.73
G05
X27.3Y-10.96G85X27.3Y-11.76
G05
M30
