%TF.GenerationSoftware,KiCad,Pcbnew,10.0.3*%
%TF.CreationDate,2026-06-04T21:10:06-05:00*%
%TF.ProjectId,board,626f6172-642e-46b6-9963-61645f706362,v1.0-DRAFT*%
%TF.SameCoordinates,Original*%
%TF.FileFunction,Other,User*%
%FSLAX46Y46*%
G04 Gerber Fmt 4.6, Leading zero omitted, Abs format (unit mm)*
G04 Created by KiCad (PCBNEW 10.0.3) date 2026-06-04 21:10:06*
%MOMM*%
%LPD*%
G01*
G04 APERTURE LIST*
%ADD10C,0.010000*%
%ADD11C,0.050000*%
G04 APERTURE END LIST*
D10*
%TO.C,U3*%
X38941600Y-11941600D02*
X59058400Y-11941600D01*
X59058400Y-32058400D01*
X38941600Y-32058400D01*
X38941600Y-11941600D01*
G36*
X59058400Y-32058400D02*
G01*
X38941600Y-32058400D01*
X38941600Y-11941600D01*
X59058400Y-11941600D01*
X59058400Y-32058400D01*
G37*
%TO.C,U2*%
D11*
X19000000Y-9000000D02*
X36800000Y-9000000D01*
X36800000Y-30000000D01*
X19000000Y-30000000D01*
X19000000Y-9000000D01*
%TO.C,J2*%
X6150000Y-17550000D02*
X14750000Y-17550000D01*
X14750000Y-24450000D01*
X6150000Y-24450000D01*
X6150000Y-17550000D01*
%TO.C,U1*%
X5870000Y-6870000D02*
X6250000Y-6870000D01*
X5870000Y-9130000D02*
X5870000Y-6870000D01*
X6250000Y-6250000D02*
X6870000Y-6250000D01*
X6250000Y-6870000D02*
X6250000Y-6250000D01*
X6250000Y-9130000D02*
X5870000Y-9130000D01*
X6250000Y-9750000D02*
X6250000Y-9130000D01*
X6870000Y-5870000D02*
X9130000Y-5870000D01*
X6870000Y-6250000D02*
X6870000Y-5870000D01*
X6870000Y-9750000D02*
X6250000Y-9750000D01*
X6870000Y-10130000D02*
X6870000Y-9750000D01*
X9130000Y-5870000D02*
X9130000Y-6250000D01*
X9130000Y-6250000D02*
X9750000Y-6250000D01*
X9130000Y-9750000D02*
X9130000Y-10130000D01*
X9130000Y-10130000D02*
X6870000Y-10130000D01*
X9750000Y-6250000D02*
X9750000Y-6870000D01*
X9750000Y-6870000D02*
X10130000Y-6870000D01*
X9750000Y-9130000D02*
X9750000Y-9750000D01*
X9750000Y-9750000D02*
X9130000Y-9750000D01*
X10130000Y-6870000D02*
X10130000Y-9130000D01*
X10130000Y-9130000D02*
X9750000Y-9130000D01*
%TO.C,J1*%
X17700000Y-5940000D02*
X17700000Y-16110000D01*
X17700000Y-5940000D02*
X28250000Y-5940000D01*
X17700000Y-16110000D02*
X28250000Y-16110000D01*
X28250000Y-5940000D02*
X28250000Y-16110000D01*
%TO.C,U4*%
X48590000Y-33460000D02*
X51410000Y-33460000D01*
X48590000Y-36540000D02*
X48590000Y-33460000D01*
X51410000Y-33460000D02*
X51410000Y-36540000D01*
X51410000Y-36540000D02*
X48590000Y-36540000D01*
%TD*%
M02*
